<svg width="34" height="34" viewBox="0 0 34 34" fill="none" xmlns="http://www.w3.org/2000/svg">
<circle cx="16.6058" cy="16.6058" r="16.6058" fill="#E7F6EC"/>
<path fill-rule="evenodd" clip-rule="evenodd" d="M17.0026 8.66602C14.7014 8.66602 12.8359 10.5315 12.8359 12.8327C12.8359 15.1339 14.7014 16.9993 17.0026 16.9993C19.3038 16.9993 21.1693 15.1339 21.1693 12.8327C21.1693 10.5315 19.3038 8.66602 17.0026 8.66602ZM14.5026 12.8327C14.5026 11.452 15.6219 10.3327 17.0026 10.3327C18.3833 10.3327 19.5026 11.452 19.5026 12.8327C19.5026 14.2134 18.3833 15.3327 17.0026 15.3327C15.6219 15.3327 14.5026 14.2134 14.5026 12.8327Z" fill="#0F973D"/>
<path fill-rule="evenodd" clip-rule="evenodd" d="M17.0026 26.166C15.7189 26.166 13.8608 25.8745 12.4655 25.2638C11.7805 24.964 11.0838 24.535 10.6791 23.9139C10.4662 23.5872 10.3316 23.2024 10.336 22.7729C10.3404 22.3472 10.4805 21.9394 10.7159 21.56C11.857 19.7207 14.1916 17.8327 17.0026 17.8327C19.8136 17.8327 22.1482 19.7207 23.2893 21.56C23.5247 21.9394 23.6648 22.3472 23.6692 22.7729C23.6736 23.2024 23.539 23.5872 23.3261 23.9139C22.9214 24.535 22.2247 24.964 21.5397 25.2638C20.1444 25.8745 18.2864 26.166 17.0026 26.166ZM12.1321 22.4387C12.0224 22.6155 12.0032 22.7291 12.0026 22.79C12.002 22.8469 12.0167 22.9138 12.0754 23.0039C12.2139 23.2164 12.5502 23.4816 13.1337 23.737C14.2755 24.2367 15.897 24.4993 17.0026 24.4993C18.1082 24.4993 19.7297 24.2367 20.8715 23.737C21.455 23.4816 21.7913 23.2164 21.9298 23.0039C21.9886 22.9138 22.0032 22.8469 22.0026 22.79C22.002 22.7291 21.9828 22.6155 21.8731 22.4387C20.938 20.9315 19.0729 19.4993 17.0026 19.4993C14.9323 19.4993 13.0672 20.9315 12.1321 22.4387Z" fill="#0F973D"/>
</svg>
