<svg width="34" height="35" viewBox="0 0 34 35" fill="none" xmlns="http://www.w3.org/2000/svg">
<circle cx="16.6058" cy="17.5004" r="16.6058" fill="#FBE8FF"/>
<path fill-rule="evenodd" clip-rule="evenodd" d="M16.9996 12.0536C14.9286 12.0536 13.2496 13.7326 13.2496 15.8036C13.2496 17.8747 14.9286 19.5536 16.9996 19.5536C19.0707 19.5536 20.7496 17.8747 20.7496 15.8036C20.7496 13.7326 19.0707 12.0536 16.9996 12.0536ZM14.9163 15.8036C14.9163 14.653 15.849 13.7203 16.9996 13.7203C18.1502 13.7203 19.083 14.653 19.083 15.8036C19.083 16.9542 18.1502 17.887 16.9996 17.887C15.849 17.887 14.9163 16.9542 14.9163 15.8036Z" fill="#B021B8"/>
<path fill-rule="evenodd" clip-rule="evenodd" d="M13.5073 10.4636C15.6221 9.05379 18.3772 9.05379 20.4919 10.4636C23.351 12.3697 24.1537 16.2162 22.2956 19.1066L19.1026 24.0734C18.1185 25.6042 15.8808 25.6042 14.8967 24.0734L11.7037 19.1066C9.84558 16.2162 10.6483 12.3697 13.5073 10.4636ZM14.4318 11.8504C15.9868 10.8138 18.0125 10.8138 19.5674 11.8504C21.6696 13.2519 22.2598 16.0801 20.8936 18.2053L17.7006 23.1722C17.3726 23.6824 16.6267 23.6824 16.2987 23.1722L13.1057 18.2053C11.7394 16.0801 12.3296 13.2519 14.4318 11.8504Z" fill="#B021B8"/>
</svg>
