<svg width="50" height="50" viewBox="0 0 50 50" fill="none" xmlns="http://www.w3.org/2000/svg">
<g clip-path="url(#clip0_5454_10151)">
<rect width="50" height="50" rx="5" fill="#09242D"/>
<path d="M25.0026 23.9583C27.3038 23.9583 29.1693 22.0929 29.1693 19.7917C29.1693 17.4905 27.3038 15.625 25.0026 15.625C22.7014 15.625 20.8359 17.4905 20.8359 19.7917C20.8359 22.0929 22.7014 23.9583 25.0026 23.9583Z" fill="white"/>
<path d="M18.0293 31.25C16.3037 34.0313 22.0159 35.4167 25.0026 35.4167C27.9893 35.4167 33.7015 34.0313 31.9759 31.25C30.6782 29.1584 28.0534 27.0833 25.0026 27.0833C21.9518 27.0833 19.327 29.1584 18.0293 31.25Z" fill="white"/>
</g>
<defs>
<clipPath id="clip0_5454_10151">
<rect width="50" height="50" rx="25" fill="white"/>
</clipPath>
</defs>
</svg>
