<svg width="33" height="35" viewBox="0 0 33 35" fill="none" xmlns="http://www.w3.org/2000/svg">
<path d="M25.3125 10V9.0625C25.3107 6.69837 24.3861 4.42833 22.7356 2.73568C21.0851 1.04303 18.8391 0.0614794 16.4758 0H16.0242C13.6609 0.0614794 11.4149 1.04303 9.76441 2.73568C8.11393 4.42833 7.18935 6.69837 7.1875 9.0625V10H0.3125C0.22962 10 0.150134 10.0329 0.0915292 10.0915C0.0329241 10.1501 0 10.2296 0 10.3125V33.75C0 34.0815 0.131696 34.3995 0.366116 34.6339C0.600537 34.8683 0.918479 35 1.25 35H31.25C31.5815 35 31.8995 34.8683 32.1339 34.6339C32.3683 34.3995 32.5 34.0815 32.5 33.75V10.3125C32.5 10.2296 32.4671 10.1501 32.4085 10.0915C32.3499 10.0329 32.2704 10 32.1875 10H25.3125ZM22.1875 10H10.3125V9.14062C10.3125 5.87187 12.9227 3.15937 16.1914 3.125C16.9758 3.11809 17.7538 3.26652 18.4806 3.56174C19.2074 3.85695 19.8685 4.29311 20.4259 4.84507C20.9833 5.39702 21.426 6.05385 21.7283 6.77769C22.0306 7.50153 22.1867 8.27806 22.1875 9.0625V10Z" fill="#324950"/>
</svg>
