<svg width="34" height="35" viewBox="0 0 34 35" fill="none" xmlns="http://www.w3.org/2000/svg">
<circle cx="16.6058" cy="17.5004" r="16.6058" fill="#E8ECFF"/>
<path d="M10.3359 21.2275C10.3359 20.7673 10.709 20.3942 11.1693 20.3942H17.8359C18.2962 20.3942 18.6693 20.7673 18.6693 21.2275C18.6693 21.6878 18.2962 22.0609 17.8359 22.0609H11.1693C10.709 22.0609 10.3359 21.6878 10.3359 21.2275Z" fill="#1671D9"/>
<path d="M20.3359 20.3942C19.8757 20.3942 19.5026 20.7673 19.5026 21.2275C19.5026 21.6878 19.8757 22.0609 20.3359 22.0609H22.0026C22.4628 22.0609 22.8359 21.6878 22.8359 21.2275C22.8359 20.7673 22.4628 20.3942 22.0026 20.3942H20.3359Z" fill="#1671D9"/>
<path fill-rule="evenodd" clip-rule="evenodd" d="M7.83594 13.3109C7.83594 11.4699 9.32832 9.97754 11.1693 9.97754H22.8359C24.6769 9.97754 26.1693 11.4699 26.1693 13.3109V22.4775C26.1693 24.3185 24.6769 25.8109 22.8359 25.8109H11.1693C9.32832 25.8109 7.83594 24.3185 7.83594 22.4775V13.3109ZM11.1693 11.6442C10.2488 11.6442 9.5026 12.3904 9.5026 13.3109V13.7275H24.5026V13.3109C24.5026 12.3904 23.7564 11.6442 22.8359 11.6442H11.1693ZM24.5026 15.3942H9.5026V22.4775C9.5026 23.398 10.2488 24.1442 11.1693 24.1442H22.8359C23.7564 24.1442 24.5026 23.398 24.5026 22.4775V15.3942Z" fill="#1671D9"/>
</svg>
