<svg width="13" height="13" viewBox="0 0 13 13" fill="none" xmlns="http://www.w3.org/2000/svg">
<path d="M10.2891 8.125C9.36823 8.125 8.66406 8.82917 8.66406 9.75C8.66406 10.6708 9.36823 11.375 10.2891 11.375C11.2099 11.375 11.9141 10.6708 11.9141 9.75C11.9141 8.82917 11.2099 8.125 10.2891 8.125ZM10.2891 10.2917C9.96406 10.2917 9.7474 10.075 9.7474 9.75C9.7474 9.425 9.96406 9.20833 10.2891 9.20833C10.6141 9.20833 10.8307 9.425 10.8307 9.75C10.8307 10.075 10.6141 10.2917 10.2891 10.2917Z" fill="#5B6D73"/>
<path d="M11.5865 6.77067C11.3156 6.66234 11.099 6.60817 10.8281 6.554V4.87484C11.424 4.7665 11.9115 4.22484 11.9115 3.52067C11.9115 2.76234 11.3156 2.1665 10.5573 2.1665H9.20312C8.87812 2.1665 8.66146 2.38317 8.66146 2.70817C8.66146 3.03317 8.87812 3.24984 9.20312 3.24984H10.5573C10.7198 3.24984 10.8281 3.35817 10.8281 3.52067C10.8281 3.68317 10.7198 3.7915 10.5573 3.7915H10.2865C9.96146 3.7915 9.74479 4.00817 9.74479 4.33317V6.554C8.55312 6.77067 7.63229 7.58317 7.25312 8.6665H6.49479V5.4165H7.03646C7.36146 5.4165 7.57812 5.19984 7.57812 4.87484C7.57812 4.54984 7.36146 4.33317 7.03646 4.33317H2.70312C2.37812 4.33317 2.16146 4.54984 2.16146 4.87484C2.16146 5.19984 2.37812 5.4165 2.70312 5.4165H3.62396C2.10729 6.17484 1.07812 7.58317 1.07812 9.20817C1.07812 9.53317 1.29479 9.74984 1.61979 9.74984H1.67396C1.78229 10.6707 2.59479 11.3748 3.51562 11.3748C4.43646 11.3748 5.24896 10.6707 5.35729 9.74984H5.95312H7.03646C7.03646 10.0748 7.25312 10.2915 7.57812 10.2915C7.90312 10.2915 8.11979 10.0748 8.11979 9.74984C8.11979 8.55817 9.09479 7.58317 10.2865 7.58317C10.6115 7.58317 10.8823 7.63734 11.1531 7.74567C11.424 7.854 11.749 7.74567 11.8573 7.47484C11.9656 7.204 11.8573 6.879 11.5865 6.77067ZM3.51562 10.2915C3.13646 10.2915 2.86562 10.0748 2.75729 9.74984H4.27396C4.16562 10.0748 3.89479 10.2915 3.51562 10.2915ZM5.41146 8.6665H4.86979H2.21562C2.48646 7.25817 3.78646 6.17484 5.41146 6.01234V8.6665Z" fill="#5B6D73"/>
</svg>
