<svg width="20" height="20" viewBox="0 0 20 20" fill="none" xmlns="http://www.w3.org/2000/svg">
<path d="M7.91415 1.45898C7.56776 1.45898 7.2575 1.67326 7.13482 1.99719L6.9435 2.50243C6.53335 2.46144 6.15545 2.42054 5.84954 2.38619C5.62087 2.36052 5.43289 2.33856 5.30231 2.32305L5.15169 2.30497L5.10053 2.29871C4.64379 2.24216 4.22703 2.56649 4.17047 3.02324C4.1139 3.47999 4.43832 3.89611 4.89507 3.95267L4.95073 3.95947L5.10571 3.97808C5.23933 3.99395 5.43089 4.01632 5.66358 4.04245C6.12855 4.09466 6.75963 4.16206 7.42174 4.22248C8.31489 4.30399 9.29392 4.37565 9.99748 4.37565C10.701 4.37565 11.6801 4.30399 12.5732 4.22248C13.2353 4.16206 13.8664 4.09466 14.3314 4.04245C14.5641 4.01632 14.7556 3.99395 14.8893 3.97808L15.0442 3.95947L15.0998 3.95268C15.5565 3.89612 15.8811 3.47999 15.8245 3.02324C15.7679 2.56649 15.3518 2.24208 14.8951 2.29863L14.8433 2.30497L14.6927 2.32305C14.5621 2.33856 14.3741 2.36052 14.1454 2.38619C13.8395 2.42054 13.4616 2.46144 13.0515 2.50243L12.8601 1.99719C12.7375 1.67326 12.4272 1.45898 12.0808 1.45898H7.91415Z" fill="#D42620"/>
<path d="M9.16415 9.79232C9.16415 9.33208 8.79105 8.95898 8.33082 8.95898C7.87058 8.95898 7.49748 9.33208 7.49748 9.79232V13.959C7.49748 14.4192 7.87058 14.7923 8.33082 14.7923C8.79105 14.7923 9.16415 14.4192 9.16415 13.959V9.79232Z" fill="#D42620"/>
<path d="M11.6641 8.95898C12.1244 8.95898 12.4975 9.33208 12.4975 9.79232V13.959C12.4975 14.4192 12.1244 14.7923 11.6641 14.7923C11.2039 14.7923 10.8308 14.4192 10.8308 13.959V9.79232C10.8308 9.33208 11.2039 8.95898 11.6641 8.95898Z" fill="#D42620"/>
<path fill-rule="evenodd" clip-rule="evenodd" d="M15.7555 6.70945C15.831 5.65214 14.9195 4.80451 13.8836 4.92423C12.8235 5.04674 11.1878 5.20898 9.99748 5.20898C8.8072 5.20898 7.17143 5.04674 6.1114 4.92423C5.07546 4.80451 4.16392 5.65214 4.23944 6.70945L4.95338 16.7047C5.0075 17.4624 5.57187 18.103 6.34635 18.2194C7.17686 18.3443 8.70077 18.5438 9.99845 18.5423C11.2802 18.5408 12.8103 18.3422 13.6445 18.2184C14.4203 18.1034 14.9875 17.4623 15.0417 16.7024L15.7555 6.70945ZM14.0749 6.57988C14.0778 6.57955 14.08 6.57974 14.08 6.57974L14.0822 6.58025C14.0841 6.58089 14.087 6.58241 14.0898 6.58513C14.0917 6.58693 14.0932 6.58913 14.0932 6.58913L14.0931 6.5907L13.3801 16.5728C12.5545 16.6948 11.1396 16.8743 9.99652 16.8757C8.84106 16.877 7.43488 16.6972 6.61499 16.5744L5.90187 6.5907L5.90181 6.58913C5.90181 6.58913 5.90323 6.58693 5.90513 6.58513C5.908 6.58241 5.91091 6.58089 5.91276 6.58025L5.91496 6.57974C5.91496 6.57974 5.91718 6.57955 5.92007 6.57988C6.98197 6.7026 8.70202 6.87565 9.99748 6.87565C11.2929 6.87565 13.013 6.7026 14.0749 6.57988Z" fill="#D42620"/>
</svg>
