<svg width="34" height="34" viewBox="0 0 34 34" fill="none" xmlns="http://www.w3.org/2000/svg">
<g clip-path="url(#clip0_6211_7470)">
<path d="M21.7338 22.9709L16.4959 17.733L11.257 12.4951C11.257 12.4951 11.6868 23.0568 0.695312 25.8052C0.695312 25.8052 1.66998 28.154 3.87242 30.3564C6.07487 32.5589 8.4237 33.5336 8.4237 33.5336C11.172 22.5412 21.7338 22.9709 21.7338 22.9709Z" fill="#77B255"/>
<path d="M13.0591 15.672C12.3725 19.1069 8.25 24.6027 8.25 24.6027L16.4931 16.3596C19.2405 13.6122 13.0591 15.672 13.0591 15.672ZM24.7372 21.8543C24.7372 21.8543 14.4333 22.5409 8.25 27.3501C15.8065 19.7936 19.2414 19.1069 19.2414 19.1069L24.7372 21.8543Z" fill="#5C913B"/>
<path d="M28.4838 26.6257C28.8058 26.6496 29.1291 26.6039 29.4319 26.4918C29.7347 26.3797 30.0098 26.2037 30.2386 25.9759C30.6636 25.5508 30.9024 24.9743 30.9024 24.3732C30.9024 23.7721 30.6636 23.1955 30.2386 22.7705C30.1583 22.6902 30.0686 22.625 29.9798 22.5589C30.3808 22.4633 30.7478 22.259 31.0404 21.9686C31.3212 21.6851 31.5211 21.3316 31.6193 20.9449C32.006 20.8462 32.3593 20.6464 32.6431 20.3659C33.0682 19.9408 33.3069 19.3643 33.3069 18.7632C33.3069 18.1621 33.0682 17.5855 32.6431 17.1605C32.934 16.8695 33.1402 16.5049 33.2396 16.1057C33.339 15.7064 33.3279 15.2877 33.2074 14.8943C33.087 14.5009 32.8617 14.1478 32.5558 13.8726C32.2499 13.5975 31.875 13.4109 31.4711 13.3326C31.6762 12.9106 31.7449 12.4352 31.6677 11.9724C31.5906 11.5096 31.3713 11.0822 31.0404 10.7496C30.7478 10.4592 30.3808 10.2549 29.9798 10.1593C30.0686 10.0932 30.1583 10.028 30.2386 9.94774C30.6636 9.52267 30.9024 8.94615 30.9024 8.34502C30.9024 7.74389 30.6636 7.16738 30.2386 6.7423C29.9061 6.41099 29.4788 6.19149 29.0158 6.11431C28.5529 6.03712 28.0774 6.10609 27.6555 6.31163C27.5512 5.76949 27.2516 5.28448 26.8134 4.94866C26.3752 4.61283 25.8289 4.44955 25.2783 4.4898C25.3022 4.16781 25.2566 3.84446 25.1445 3.54168C25.0323 3.2389 24.8564 2.96379 24.6285 2.73502C24.2035 2.30997 23.627 2.07118 23.0258 2.07118C22.4247 2.07118 21.8482 2.30997 21.4231 2.73502C21.0907 2.40371 20.6633 2.18421 20.2004 2.10703C19.7374 2.02984 19.262 2.09882 18.84 2.30435C18.7398 1.78782 18.4629 1.32226 18.0569 0.987527C17.6509 0.652791 17.1411 0.469727 16.6149 0.469727C16.0888 0.469727 15.579 0.652791 15.173 0.987527C14.767 1.32226 14.4901 1.78782 14.3898 2.30435C13.9678 2.09924 13.4924 2.03049 13.0296 2.10766C12.5668 2.18483 12.1394 2.40408 11.8068 2.73502C11.5164 3.02765 11.3121 3.3946 11.2165 3.79563C11.1504 3.70685 11.0852 3.61713 11.0049 3.53685C10.5799 3.1118 10.0033 2.87302 9.40222 2.87302C8.80108 2.87302 8.22457 3.1118 7.79949 3.53685C7.46796 3.8689 7.24814 4.29601 7.17062 4.75879C7.09309 5.22157 7.16171 5.697 7.36694 6.11897C6.96304 6.19719 6.58804 6.38387 6.28215 6.65898C5.97627 6.9341 5.75102 7.28728 5.63057 7.68066C5.51012 8.07404 5.49901 8.49278 5.59842 8.892C5.69783 9.29121 5.90402 9.65584 6.19488 9.9468C6.49805 10.25 6.86733 10.4417 7.25549 10.5371C7.16672 10.6032 7.07699 10.6684 6.99672 10.7486C6.70585 11.0396 6.49966 11.4042 6.40025 11.8034C6.30084 12.2026 6.31196 12.6214 6.43241 13.0148C6.55286 13.4082 6.7781 13.7613 7.08399 14.0364C7.38987 14.3116 7.76487 14.4982 8.16877 14.5765C7.96365 14.9985 7.89491 15.4739 7.97208 15.9367C8.04925 16.3995 8.2685 16.8269 8.59944 17.1595C8.93185 17.4908 9.35923 17.7103 9.82216 17.7875C10.2851 17.8647 10.7606 17.7957 11.1825 17.5902C11.2636 18.0148 11.4655 18.407 11.7641 18.7196C12.0626 19.0322 12.4451 19.252 12.8655 19.3525C12.7767 19.4186 12.687 19.4838 12.6067 19.5641C12.1817 19.9892 11.9429 20.5657 11.9429 21.1668C11.9429 21.7679 12.1817 22.3444 12.6067 22.7695C12.9391 23.1008 13.3665 23.3203 13.8294 23.3975C14.2924 23.4747 14.7679 23.4057 15.1898 23.2002C15.249 23.5077 15.3715 23.7995 15.5497 24.0571C15.7279 24.3146 15.9577 24.5323 16.2246 24.6961C16.4915 24.8599 16.7896 24.9664 17.0999 25.0087C17.4102 25.051 17.7259 25.0282 18.0269 24.9417C18.0873 25.0211 18.144 25.1014 18.2167 25.1741C18.6984 25.6557 19.3415 25.8654 19.9715 25.8239C19.9476 26.1458 19.9933 26.4692 20.1054 26.772C20.2175 27.0748 20.3934 27.3499 20.6213 27.5786C21.0463 28.0037 21.6229 28.2425 22.224 28.2425C22.8251 28.2425 23.4016 28.0037 23.8267 27.5786C23.907 27.4984 23.9722 27.4086 24.0383 27.3199C24.1337 27.708 24.3254 28.0773 24.6285 28.3805C25.0536 28.8055 25.6301 29.0443 26.2313 29.0443C26.8324 29.0443 27.4089 28.8055 27.834 28.3805C28.3157 27.8988 28.5253 27.2556 28.4838 26.6257Z" fill="#3E721D"/>
<path d="M10.3088 6.82471C11.1137 6.82471 11.7661 6.17227 11.7661 5.36743C11.7661 4.5626 11.1137 3.91016 10.3088 3.91016C9.50401 3.91016 8.85156 4.5626 8.85156 5.36743C8.85156 6.17227 9.50401 6.82471 10.3088 6.82471Z" fill="#5C913B"/>
<path d="M14.4338 6.82471C15.2387 6.82471 15.8911 6.17227 15.8911 5.36743C15.8911 4.5626 15.2387 3.91016 14.4338 3.91016C13.629 3.91016 12.9766 4.5626 12.9766 5.36743C12.9766 6.17227 13.629 6.82471 14.4338 6.82471Z" fill="#5C913B"/>
<path d="M17.1838 4.07764C17.9887 4.07764 18.6411 3.4252 18.6411 2.62036C18.6411 1.81553 17.9887 1.16309 17.1838 1.16309C16.379 1.16309 15.7266 1.81553 15.7266 2.62036C15.7266 3.4252 16.379 4.07764 17.1838 4.07764Z" fill="#5C913B"/>
<path d="M20.6213 6.13819C21.4262 6.13819 22.0786 5.48574 22.0786 4.68091C22.0786 3.87608 21.4262 3.22363 20.6213 3.22363C19.8165 3.22363 19.1641 3.87608 19.1641 4.68091C19.1641 5.48574 19.8165 6.13819 20.6213 6.13819Z" fill="#5C913B"/>
<path d="M23.3635 6.13819C24.1684 6.13819 24.8208 5.48574 24.8208 4.68091C24.8208 3.87608 24.1684 3.22363 23.3635 3.22363C22.5587 3.22363 21.9062 3.87608 21.9062 4.68091C21.9062 5.48574 22.5587 6.13819 23.3635 6.13819Z" fill="#5C913B"/>
<path d="M24.051 8.19873C24.8559 8.19873 25.5083 7.54629 25.5083 6.74146C25.5083 5.93663 24.8559 5.28418 24.051 5.28418C23.2462 5.28418 22.5938 5.93663 22.5938 6.74146C22.5938 7.54629 23.2462 8.19873 24.051 8.19873Z" fill="#5C913B"/>
<path d="M26.1135 8.88526C26.9184 8.88526 27.5708 8.23281 27.5708 7.42798C27.5708 6.62315 26.9184 5.9707 26.1135 5.9707C25.3087 5.9707 24.6562 6.62315 24.6562 7.42798C24.6562 8.23281 25.3087 8.88526 26.1135 8.88526Z" fill="#5C913B"/>
<path d="M28.8635 10.2593C29.6684 10.2593 30.3208 9.60684 30.3208 8.802C30.3208 7.99717 29.6684 7.34473 28.8635 7.34473C28.0587 7.34473 27.4062 7.99717 27.4062 8.802C27.4062 9.60684 28.0587 10.2593 28.8635 10.2593Z" fill="#5C913B"/>
<path d="M28.176 12.3208C28.9809 12.3208 29.6333 11.6684 29.6333 10.8635C29.6333 10.0587 28.9809 9.40625 28.176 9.40625C27.3712 9.40625 26.7188 10.0587 26.7188 10.8635C26.7188 11.6684 27.3712 12.3208 28.176 12.3208Z" fill="#5C913B"/>
<path d="M30.2307 15.7554C31.0355 15.7554 31.688 15.1029 31.688 14.2981C31.688 13.4933 31.0355 12.8408 30.2307 12.8408C29.4259 12.8408 28.7734 13.4933 28.7734 14.2981C28.7734 15.1029 29.4259 15.7554 30.2307 15.7554Z" fill="#5C913B"/>
<path d="M30.926 19.1899C31.7309 19.1899 32.3833 18.5375 32.3833 17.7327C32.3833 16.9278 31.7309 16.2754 30.926 16.2754C30.1212 16.2754 29.4688 16.9278 29.4688 17.7327C29.4688 18.5375 30.1212 19.1899 30.926 19.1899Z" fill="#5C913B"/>
<path d="M25.426 12.3208C26.2309 12.3208 26.8833 11.6684 26.8833 10.8635C26.8833 10.0587 26.2309 9.40625 25.426 9.40625C24.6212 9.40625 23.9688 10.0587 23.9688 10.8635C23.9688 11.6684 24.6212 12.3208 25.426 12.3208Z" fill="#5C913B"/>
<path d="M22.6838 9.57276C23.4887 9.57276 24.1411 8.92031 24.1411 8.11548C24.1411 7.31065 23.4887 6.6582 22.6838 6.6582C21.879 6.6582 21.2266 7.31065 21.2266 8.11548C21.2266 8.92031 21.879 9.57276 22.6838 9.57276Z" fill="#5C913B"/>
<path d="M19.2463 7.51221C20.0512 7.51221 20.7036 6.85977 20.7036 6.05493C20.7036 5.2501 20.0512 4.59766 19.2463 4.59766C18.4415 4.59766 17.7891 5.2501 17.7891 6.05493C17.7891 6.85977 18.4415 7.51221 19.2463 7.51221Z" fill="#5C913B"/>
<path d="M15.1213 8.88526C15.9262 8.88526 16.5786 8.23281 16.5786 7.42798C16.5786 6.62315 15.9262 5.9707 15.1213 5.9707C14.3165 5.9707 13.6641 6.62315 13.6641 7.42798C13.6641 8.23281 14.3165 8.88526 15.1213 8.88526Z" fill="#5C913B"/>
<path d="M16.4963 7.51221C17.3012 7.51221 17.9536 6.85977 17.9536 6.05493C17.9536 5.2501 17.3012 4.59766 16.4963 4.59766C15.6915 4.59766 15.0391 5.2501 15.0391 6.05493C15.0391 6.85977 15.6915 7.51221 16.4963 7.51221Z" fill="#5C913B"/>
<path d="M12.3713 10.2593C13.1762 10.2593 13.8286 9.60684 13.8286 8.802C13.8286 7.99717 13.1762 7.34473 12.3713 7.34473C11.5665 7.34473 10.9141 7.99717 10.9141 8.802C10.9141 9.60684 11.5665 10.2593 12.3713 10.2593Z" fill="#5C913B"/>
<path d="M19.2463 11.6333C20.0512 11.6333 20.7036 10.9809 20.7036 10.176C20.7036 9.37119 20.0512 8.71875 19.2463 8.71875C18.4415 8.71875 17.7891 9.37119 17.7891 10.176C17.7891 10.9809 18.4415 11.6333 19.2463 11.6333Z" fill="#5C913B"/>
<path d="M24.051 16.4419C24.8559 16.4419 25.5083 15.7895 25.5083 14.9846C25.5083 14.1798 24.8559 13.5273 24.051 13.5273C23.2462 13.5273 22.5938 14.1798 22.5938 14.9846C22.5938 15.7895 23.2462 16.4419 24.051 16.4419Z" fill="#5C913B"/>
<path d="M25.426 20.564C26.2309 20.564 26.8833 19.9115 26.8833 19.1067C26.8833 18.3019 26.2309 17.6494 25.426 17.6494C24.6212 17.6494 23.9688 18.3019 23.9688 19.1067C23.9688 19.9115 24.6212 20.564 25.426 20.564Z" fill="#5C913B"/>
</g>
<defs>
<clipPath id="clip0_6211_7470">
<rect width="34" height="34" fill="white"/>
</clipPath>
</defs>
</svg>
