<svg width="20" height="20" viewBox="0 0 20 20" fill="none" xmlns="http://www.w3.org/2000/svg">
<path fill-rule="evenodd" clip-rule="evenodd" d="M13.7493 2.5C14.8999 2.5 15.8327 3.43274 15.8327 4.58333V5H17.4993C17.9596 5 18.3327 5.3731 18.3327 5.83333C18.3327 6.29357 17.9596 6.66667 17.4993 6.66667H15.8327V7.08333C15.8327 8.23393 14.8999 9.16667 13.7493 9.16667H11.2493C10.0988 9.16667 9.16602 8.23393 9.16602 7.08333V6.66667L2.49935 6.66667C2.03911 6.66667 1.66602 6.29357 1.66602 5.83333C1.66602 5.3731 2.03911 5 2.49935 5L9.16602 5V4.58333C9.16602 3.43274 10.0988 2.5 11.2493 2.5H13.7493ZM14.166 4.58333V7.08333C14.166 7.31345 13.9795 7.5 13.7493 7.5H11.2493C11.0192 7.5 10.8327 7.31345 10.8327 7.08333V4.58333C10.8327 4.35321 11.0192 4.16667 11.2493 4.16667L13.7493 4.16667C13.9795 4.16667 14.166 4.35321 14.166 4.58333Z" fill="#344054"/>
<path fill-rule="evenodd" clip-rule="evenodd" d="M4.16602 13.3333H2.49935C2.03911 13.3333 1.66602 13.7064 1.66602 14.1667C1.66602 14.6269 2.03911 15 2.49935 15H4.16602V15.4167C4.16602 16.5673 5.09876 17.5 6.24935 17.5H11.2493C12.3999 17.5 13.3327 16.5673 13.3327 15.4167V15H17.4993C17.9596 15 18.3327 14.6269 18.3327 14.1667C18.3327 13.7064 17.9596 13.3333 17.4993 13.3333H13.3327V12.9167C13.3327 11.7661 12.3999 10.8333 11.2493 10.8333H6.24935C5.09876 10.8333 4.16602 11.7661 4.16602 12.9167V13.3333ZM11.666 12.9167C11.666 12.6865 11.4795 12.5 11.2493 12.5H6.24935C6.01923 12.5 5.83268 12.6865 5.83268 12.9167V15.4167C5.83268 15.6468 6.01923 15.8333 6.24935 15.8333H11.2493C11.4795 15.8333 11.666 15.6468 11.666 15.4167V12.9167Z" fill="#344054"/>
</svg>
