<svg width="21" height="20" viewBox="0 0 21 20" fill="none" xmlns="http://www.w3.org/2000/svg">
<path fill-rule="evenodd" clip-rule="evenodd" d="M2.41927 0.833496C1.95903 0.833496 1.58594 1.20659 1.58594 1.66683C1.58594 2.12707 1.95903 2.50016 2.41927 2.50016C3.02629 2.50016 3.5566 2.94123 3.66578 3.56183L4.23735 6.81074L4.23785 6.81361L4.60407 8.86023C4.8331 10.1403 5.016 11.1625 5.24724 11.9745C5.48571 12.8119 5.79477 13.5009 6.3197 14.0832C6.68024 14.4831 7.10208 14.8255 7.56958 15.0987C8.24682 15.4945 8.9934 15.6688 9.88105 15.7522C10.7458 15.8335 11.8176 15.8335 13.1678 15.8335H13.5783C14.1788 15.8335 14.6739 15.8335 15.0818 15.8038C15.5067 15.7729 15.8934 15.707 16.2686 15.5471C16.8158 15.3138 17.295 14.9471 17.658 14.4792C17.9086 14.1561 18.0651 13.7999 18.1933 13.402C18.3158 13.0223 18.4274 12.5543 18.5616 11.992L18.5785 11.9211C18.7824 11.0664 18.949 10.3681 19.0297 9.79788C19.1127 9.21116 19.1218 8.65933 18.9328 8.12742C18.6673 7.37967 18.1446 6.75015 17.4606 6.34004C16.9787 6.05114 16.4339 5.9381 15.8294 5.88516C15.2392 5.83348 14.4997 5.83349 13.5871 5.8335H5.75769L5.30724 3.27306C5.06006 1.86803 3.84788 0.833496 2.41927 0.833496ZM13.5482 7.50016C14.509 7.50016 15.1752 7.50092 15.684 7.54548C16.1869 7.58952 16.4384 7.67043 16.6035 7.76946C16.9639 7.98556 17.2294 8.31093 17.3623 8.68525C17.4203 8.84844 17.4468 9.08855 17.3794 9.56441C17.311 10.0479 17.1635 10.6698 16.9477 11.5745C16.8044 12.1754 16.7072 12.58 16.6071 12.8906C16.5106 13.19 16.428 13.3456 16.3411 13.4576C16.1552 13.6973 15.9059 13.8899 15.615 14.0139C15.475 14.0736 15.2909 14.1176 14.9609 14.1416C14.6206 14.1663 14.1863 14.1668 13.5482 14.1668H13.2099C11.8083 14.1668 10.8147 14.166 10.037 14.0929C9.27325 14.0211 8.79572 13.8849 8.41053 13.6598C8.08956 13.4722 7.80199 13.2383 7.55762 12.9672C7.26746 12.6454 7.05115 12.2238 6.85018 11.518C6.6446 10.7961 6.4755 9.85667 6.23686 8.52298L6.05384 7.50016H13.5482Z" fill="#5B6D73"/>
<path d="M9.08594 17.2918C9.08594 17.8671 8.61957 18.3335 8.04427 18.3335C7.46897 18.3335 7.0026 17.8671 7.0026 17.2918C7.0026 16.7165 7.46897 16.2502 8.04427 16.2502C8.61957 16.2502 9.08594 16.7165 9.08594 17.2918Z" fill="#5B6D73"/>
<path d="M15.5443 18.3335C16.1196 18.3335 16.5859 17.8671 16.5859 17.2918C16.5859 16.7165 16.1196 16.2502 15.5443 16.2502C14.969 16.2502 14.5026 16.7165 14.5026 17.2918C14.5026 17.8671 14.969 18.3335 15.5443 18.3335Z" fill="#5B6D73"/>
</svg>
