<svg width="14" height="14" viewBox="0 0 14 14" fill="none" xmlns="http://www.w3.org/2000/svg">
<path d="M2.15365 1.16699C1.83148 1.16699 1.57031 1.42816 1.57031 1.75033C1.57031 2.07249 1.83148 2.33366 2.15365 2.33366C2.57856 2.33366 2.94978 2.64241 3.0262 3.07683L3.42636 5.3514C3.42981 5.37103 3.43421 5.39026 3.4395 5.40905L3.55759 6.06904C3.88754 7.91298 4.05251 8.83495 4.62307 9.46787C4.83479 9.70273 5.08308 9.90441 5.35905 10.0657C6.10275 10.5003 7.07281 10.5003 9.01293 10.5003H9.24974C10.1263 10.5003 10.5646 10.5003 10.9253 10.3465C11.2186 10.2215 11.4736 10.0257 11.6657 9.77809C11.902 9.47352 12.0003 9.06158 12.1968 8.2377C12.4937 6.99337 12.6421 6.37121 12.4693 5.88465C12.3298 5.49192 12.054 5.15771 11.6884 4.93853C11.2356 4.66699 10.5736 4.66699 9.24974 4.66699H4.49054L4.17522 2.87469C4.0022 1.89117 3.15368 1.16699 2.15365 1.16699Z" fill="black"/>
<path d="M6.12618 12.1045C6.12618 12.5072 5.79972 12.8337 5.39701 12.8337C4.99431 12.8337 4.66785 12.5072 4.66785 12.1045C4.66785 11.7018 4.99431 11.3753 5.39701 11.3753C5.79972 11.3753 6.12618 11.7018 6.12618 12.1045Z" fill="black"/>
<path d="M10.647 12.8337C11.0497 12.8337 11.3762 12.5072 11.3762 12.1045C11.3762 11.7018 11.0497 11.3753 10.647 11.3753C10.2443 11.3753 9.91785 11.7018 9.91785 12.1045C9.91785 12.5072 10.2443 12.8337 10.647 12.8337Z" fill="black"/>
</svg>
