<svg width="83" height="76" viewBox="0 0 83 76" fill="none" xmlns="http://www.w3.org/2000/svg">
<path d="M53.6077 68.6573L8.35358 36.4228C7.79528 36.0248 7.43091 35.4387 7.34047 34.793C7.25002 34.1473 7.44089 33.4949 7.87117 32.979L29.451 7.18224C29.8816 6.66699 30.5162 6.33057 31.2154 6.24691C31.9146 6.16324 32.6211 6.33918 33.1798 6.73605L78.4358 38.9742C78.9926 39.3723 79.3555 39.9579 79.4451 40.6026C79.5346 41.2474 79.3434 41.8985 78.9134 42.4133L57.3354 68.2138C56.9039 68.7277 56.2694 69.0629 55.5708 69.146C54.8721 69.2291 54.1662 69.0534 53.6077 68.6573Z" fill="#48B74E"/>
<path d="M19.5705 27.3396L17.4452 29.8805L17.1651 29.6797L19.0932 27.3796L18.444 26.9166L18.6441 26.6767L19.5705 27.3396Z" fill="#CDCDCD"/>
<path d="M20.4732 31.6602L20.2731 31.9L18.3487 30.5281L18.5032 30.3435L20.5068 30.1234C21.0522 30.0636 21.2512 29.9344 21.4013 29.7607C21.646 29.4683 21.5722 29.1284 21.155 28.8281C21.021 28.721 20.8627 28.6428 20.6918 28.5991C20.5209 28.5555 20.3416 28.5476 20.167 28.5759L20.1007 28.2756C20.3268 28.241 20.5584 28.2525 20.7792 28.3096C20.9999 28.3666 21.2044 28.4676 21.3783 28.6055C21.9337 29.0025 22.0686 29.5144 21.7086 29.9523C21.5084 30.1922 21.2428 30.3541 20.5958 30.4253L18.9526 30.6055L20.4732 31.6602Z" fill="#CDCDCD"/>
<path d="M23.7203 33.2864L23.1696 32.8941L22.6138 33.561L22.3308 33.3592L22.8884 32.6959L21.3291 31.5879L21.5125 31.3978L24.3712 30.7552L24.6851 30.98L21.9129 31.6153L23.105 32.4649L23.5955 31.8773L23.8708 32.0734L23.3774 32.66L23.9281 33.0523L23.7203 33.2864Z" fill="#CDCDCD"/>
<path d="M27.9285 36.2868L27.3808 35.8956L26.8221 36.5615L26.5361 36.3586L27.0948 35.6927L25.5355 34.5846L25.6939 34.3984L28.5537 33.7531L28.8677 33.9779L26.0955 34.6131L27.2876 35.4627L27.777 34.8778L28.0534 35.0713L27.563 35.6588L28.1107 36.0501L27.9285 36.2868Z" fill="#CDCDCD"/>
<path d="M30.4011 37.915C30.0403 38.3465 29.4338 38.4502 28.7644 37.971C28.3945 37.724 28.1398 37.3567 28.0516 36.9433L28.3629 36.8341C28.4278 37.1921 28.642 37.5124 28.9597 37.7264C29.4273 38.0594 29.8408 38.0284 30.1089 37.7193C30.377 37.4102 30.3284 37.0327 29.6318 36.538L29.0473 36.1218L30.2511 34.949L31.7553 36.0197L31.5552 36.2596L30.3002 35.3668L29.5316 36.1058L29.8853 36.3565C30.7153 36.9432 30.7754 37.4666 30.4011 37.915Z" fill="#CDCDCD"/>
<path d="M33.1244 39.8401C32.7242 40.3198 32.0686 40.3295 31.5333 39.9487C30.8059 39.431 30.8007 38.6798 31.4704 37.8792C32.188 37.0179 33.0743 36.933 33.8246 37.4523C34.0586 37.6053 34.2438 37.8136 34.3606 38.0554L34.0713 38.1845C33.9835 37.9819 33.8326 37.8078 33.6376 37.6843C33.0454 37.2624 32.3714 37.3429 31.794 38.0302C31.7473 38.0882 31.69 38.1642 31.6345 38.2438C31.8307 38.1599 32.0492 38.1308 32.263 38.1602C32.4769 38.1897 32.6767 38.2763 32.8378 38.4095C33.3793 38.8079 33.5122 39.3747 33.1244 39.8401ZM32.8381 39.6463C33.1189 39.3139 33.0306 38.9104 32.6045 38.6071C32.5257 38.5369 32.4321 38.4824 32.3295 38.4469C32.227 38.4114 32.1176 38.3956 32.0082 38.4006C31.8988 38.4056 31.7917 38.4312 31.6934 38.4759C31.5951 38.5205 31.5078 38.5833 31.4368 38.6603C31.2046 38.9385 31.234 39.3804 31.7093 39.7191C31.7855 39.7883 31.8769 39.8418 31.9772 39.876C32.0776 39.9102 32.1847 39.9244 32.2914 39.9175C32.3982 39.9106 32.5021 39.8829 32.5963 39.8361C32.6906 39.7894 32.773 39.7247 32.8381 39.6463Z" fill="#CDCDCD"/>
<path d="M36.85 42.5441C36.4954 42.9685 35.8885 43.0566 35.2268 42.5831C34.8558 42.3361 34.6 41.9685 34.5111 41.5544L34.8224 41.4452C34.8876 41.8064 35.1049 42.1292 35.4269 42.3432C35.8809 42.6684 36.308 42.6452 36.5592 42.3365C36.8104 42.0278 36.7513 41.6683 36.2403 41.3019L36.0451 41.1641L36.2058 40.9724L37.7022 40.634L36.2965 39.6341L36.4937 39.3933L38.2596 40.6523L38.1051 40.8369L36.5736 41.1879C37.1358 41.6428 37.19 42.1394 36.85 42.5441Z" fill="#CDCDCD"/>
<path d="M39.6483 44.4822C39.2481 44.9619 38.5925 44.9716 38.0602 44.5918C37.3298 44.0732 37.3246 43.3219 37.9933 42.524C38.7149 41.661 39.5983 41.5751 40.3474 42.0971C40.5826 42.249 40.768 42.4577 40.8834 42.7003L40.5942 42.8294C40.506 42.6269 40.3552 42.4529 40.1605 42.3291C39.5683 41.9072 38.8942 41.9877 38.3198 42.676C38.2616 42.744 38.2083 42.8153 38.1603 42.8897C38.3561 42.8065 38.5739 42.7778 38.787 42.807C39.0002 42.8363 39.1996 42.9222 39.3607 43.0543C39.8886 43.445 40.0215 44.0117 39.6483 44.4822ZM39.365 44.2895C39.6428 43.956 39.5545 43.5526 39.1303 43.253C39.0517 43.1823 38.9582 43.1273 38.8557 43.0913C38.7531 43.0553 38.6436 43.0391 38.5339 43.0437C38.4243 43.0484 38.3169 43.0737 38.2183 43.1182C38.1197 43.1627 38.032 43.2254 37.9608 43.3024C37.7285 43.5806 37.7568 44.0252 38.2321 44.3639C38.3083 44.4302 38.3986 44.4814 38.4972 44.514C38.5958 44.5467 38.7007 44.5603 38.8052 44.5538C38.9098 44.5474 39.0118 44.5211 39.1048 44.4766C39.1978 44.4321 39.2799 44.3704 39.3459 44.2953L39.365 44.2895Z" fill="#CDCDCD"/>
<path d="M43.6485 44.4973L43.494 44.6819L40.3788 46.2112L40.0744 45.9958L43.13 44.4985L41.7177 43.4902L41.3174 43.9699L41.0392 43.7727L41.6366 43.0522L43.6485 44.4973Z" fill="#CDCDCD"/>
<path d="M47.5691 47.2906L47.4146 47.4752L44.3012 49.0082L43.995 48.7891L47.0506 47.2918L45.6372 46.2862L45.2399 46.7669L44.9598 46.5661L45.5506 45.8618L47.5691 47.2906Z" fill="#CDCDCD"/>
<path d="M48.75 51.0474C48.3757 51.4959 47.7299 51.4812 47.0748 51.0162C46.4198 50.5511 46.2484 49.9804 46.6256 49.5329C46.7423 49.385 46.9107 49.2788 47.1023 49.2321C47.294 49.1854 47.4973 49.2012 47.6779 49.2767C47.5814 49.1487 47.5328 48.9952 47.5394 48.8394C47.546 48.6836 47.6075 48.534 47.7145 48.4133C48.0588 47.9978 48.654 48.0136 49.2366 48.4261C49.8193 48.8386 49.988 49.3745 49.6404 49.7982C49.5376 49.9233 49.3939 50.0147 49.2306 50.0587C49.0672 50.1027 48.8929 50.097 48.7333 50.0424C48.8589 50.1835 48.9289 50.3597 48.932 50.5423C48.935 50.7248 48.8708 50.9029 48.75 51.0474ZM48.4632 50.8381C48.7225 50.5261 48.5975 50.1224 48.1115 49.7769C47.6256 49.4315 47.1749 49.422 46.9127 49.7331C46.6505 50.0442 46.7725 50.4469 47.2614 50.7933C47.7503 51.1397 48.1999 51.1519 48.4603 50.8371L48.4632 50.8381ZM48.2817 49.57C48.7107 49.8743 49.113 49.8796 49.3441 49.6041C49.5753 49.3286 49.4592 48.9527 49.0556 48.6601C48.6519 48.3676 48.2302 48.3526 47.9968 48.6335C47.7635 48.9144 47.8557 49.2667 48.2817 49.57Z" fill="#CDCDCD"/>
<path d="M51.9011 52.3634C51.1795 53.2264 50.2932 53.3113 49.544 52.7893C49.3099 52.6363 49.1248 52.428 49.008 52.1862L49.2973 52.0571C49.3879 52.2582 49.5383 52.4316 49.731 52.5573C50.3232 52.9792 50.9973 52.8987 51.5746 52.2114C51.6213 52.1534 51.6787 52.0775 51.7341 51.9978C51.5378 52.081 51.3194 52.1097 51.1057 52.0802C50.892 52.0508 50.6923 51.9646 50.5308 51.8321C49.9849 51.4446 49.8531 50.8751 50.2428 50.4134C50.6324 49.9517 51.2957 49.923 51.8309 50.3038C52.5646 50.8143 52.5679 51.5618 51.9011 52.3634ZM51.9307 51.584C52.1659 51.3068 52.1346 50.8612 51.6623 50.5236C51.5854 50.4546 51.4935 50.4015 51.3928 50.3676C51.2921 50.3336 51.1848 50.3197 51.0778 50.3268C50.9709 50.3338 50.8667 50.3616 50.7722 50.4083C50.6777 50.4551 50.595 50.5197 50.5295 50.598C50.2526 50.9287 50.338 51.3312 50.7641 51.6345C50.8425 51.705 50.9358 51.76 51.0382 51.7959C51.1406 51.8318 51.2499 51.8478 51.3593 51.8431C51.4687 51.8384 51.5759 51.8129 51.6742 51.7684C51.7725 51.7238 51.8598 51.661 51.9307 51.584Z" fill="#CDCDCD"/>
<path d="M55.7246 53.0985L53.6044 55.635L53.3213 55.4331L55.2506 53.1303L54.6032 52.671L54.8004 52.4302L55.7246 53.0985Z" fill="#CDCDCD"/>
<path d="M56.6239 57.4142L56.4268 57.655L54.5056 56.275L54.6601 56.0904L56.6637 55.8703C57.2091 55.8105 57.4081 55.6813 57.5583 55.5076C57.8029 55.2152 57.7291 54.8753 57.3079 54.5767C57.175 54.4687 57.0173 54.39 56.8467 54.3465C56.676 54.3029 56.4969 54.2958 56.3228 54.3255L56.2576 54.0225C56.4838 53.9884 56.7153 54.0005 56.9359 54.0579C57.1564 54.1154 57.3606 54.2168 57.5341 54.3551C58.0906 54.7494 58.2244 55.264 57.8709 55.6857C57.6679 55.9245 57.4052 56.0874 56.7553 56.1577L55.1149 56.3388L56.6239 57.4142Z" fill="#CDCDCD"/>
<path d="M59.5052 58.6752C59.1517 59.0969 58.5447 59.185 57.882 58.7142C57.511 58.4662 57.2556 58.0977 57.1674 57.6828L57.4776 57.5763C57.5438 57.9372 57.7608 58.2597 58.0821 58.4744C58.5361 58.7996 58.9632 58.7763 59.2144 58.4676C59.4656 58.1589 59.4035 57.7984 58.8955 57.4331L58.7003 57.2952L58.862 57.1009L60.3573 56.7651L58.9527 55.7625L59.1499 55.5217L60.9169 56.778L60.7625 56.9626L59.2178 57.3215C59.7899 57.7766 59.8404 58.2658 59.5052 58.6752Z" fill="#CDCDCD"/>
<path d="M36.2411 46.2575L35.3203 47.3584L57.3143 63.0247L58.2351 61.9238L36.2411 46.2575Z" fill="#CDCDCD"/>
<path d="M45.1083 56.0881L44.1875 57.189L55.4672 65.2235L56.388 64.1226L45.1083 56.0881Z" fill="#CDCDCD"/>
<g opacity="0.5">
<path d="M32.4793 23.4439L25.6479 18.4794C24.9621 17.9811 23.9925 18.0671 23.482 18.6715L20.1504 22.6163C19.64 23.2207 19.7821 24.1146 20.4678 24.6129L27.2992 29.5773C27.985 30.0757 28.9546 29.9897 29.4651 29.3853L32.7967 25.4405C33.3071 24.8361 33.165 23.9422 32.4793 23.4439Z" fill="#CDCDCD"/>
</g>
<path d="M21.2078 22.2136L21.5488 21.8061L26.3001 25.1893C26.4305 25.2824 26.5795 25.3509 26.7386 25.3908C26.8977 25.4308 27.0637 25.4414 27.2273 25.4221C27.3908 25.4029 27.5486 25.3541 27.6917 25.2785C27.8349 25.2029 27.9604 25.1021 28.0613 24.9817C28.1622 24.8614 28.2364 24.7239 28.2797 24.5771C28.323 24.4303 28.3345 24.277 28.3136 24.1261C28.2927 23.9752 28.2398 23.8295 28.1579 23.6974C28.0761 23.5654 27.9668 23.4495 27.8364 23.3564L23.0833 19.9695L23.4244 19.5621L28.1786 22.9463C28.5442 23.2229 28.7787 23.6201 28.8321 24.0537C28.8856 24.4872 28.7538 24.923 28.4647 25.2683C28.1757 25.6136 27.7522 25.8414 27.2841 25.9032C26.8161 25.9651 26.3403 25.8561 25.9579 25.5994L21.2078 22.2136Z" fill="#48B74E"/>
<path d="M28.4427 24.9249L28.1016 25.332L31.3608 27.6578L31.7019 27.2506L28.4427 24.9249Z" fill="#48B74E"/>
<path d="M54.2507 30.0525L30.5156 13.146L28.944 15.0251L52.679 31.9316L54.2507 30.0525Z" fill="#CDCDCD"/>
<path d="M71.5346 40.3475L68.3203 38.0579C67.8888 37.7506 67.2691 37.8243 66.9361 38.2224L64.4551 41.1887C64.1221 41.5869 64.2019 42.1588 64.6334 42.4662L67.8476 44.7557C68.2791 45.063 68.8989 44.9894 69.2319 44.5912L71.7128 41.6249C72.0459 41.2267 71.9661 40.6548 71.5346 40.3475Z" fill="#CDCDCD"/>
</svg>
