<svg width="23" height="20" viewBox="0 0 23 20" fill="none" xmlns="http://www.w3.org/2000/svg">
<rect width="22.8571" height="20" rx="3.57143" fill="#DFFFD6"/>
<path d="M12.3975 4.75C10.4258 4.75 8.80488 6.29184 8.69614 8.25H7.03646C6.71429 8.25 6.45312 8.51117 6.45312 8.83333C6.45312 9.1555 6.71429 9.41667 7.03646 9.41667H8.65857L8.63123 10.2917H7.03646C6.71429 10.2917 6.45312 10.5528 6.45312 10.875C6.45312 11.1972 6.71429 11.4583 7.03646 11.4583H8.59477L8.55147 12.8438C8.51033 14.1604 9.56644 15.25 10.8837 15.25H14.9115C15.2336 15.25 15.4948 14.9888 15.4948 14.6667C15.4948 14.3445 15.2336 14.0833 14.9115 14.0833H10.8837C10.2251 14.0833 9.697 13.5385 9.71757 12.8802L9.762 11.4583H12.2865C12.6086 11.4583 12.8698 11.1972 12.8698 10.875C12.8698 10.5528 12.6086 10.2917 12.2865 10.2917H9.79846L9.82581 9.41667H12.2865C12.6086 9.41667 12.8698 9.1555 12.8698 8.83333C12.8698 8.51117 12.6086 8.25 12.2865 8.25H9.86544C9.97167 6.93922 11.0682 5.91667 12.3975 5.91667H13.0238C13.6022 5.91667 14.131 6.24349 14.3897 6.76087C14.5338 7.04903 14.8842 7.16583 15.1723 7.02175C15.4605 6.87767 15.5773 6.52728 15.4332 6.23913C14.9769 5.32649 14.0441 4.75 13.0238 4.75H12.3975Z" fill="#4BB62D"/>
</svg>
