<svg width="23" height="20" viewBox="0 0 23 20" fill="none" xmlns="http://www.w3.org/2000/svg">
<rect width="22.8571" height="20" rx="3.57143" fill="#FFF9E9"/>
<path d="M12.1655 11.1668C13.7764 11.1668 15.0822 9.86099 15.0822 8.25016C15.0822 6.63933 13.7764 5.3335 12.1655 5.3335C10.5547 5.3335 9.24886 6.63933 9.24886 8.25016C9.24886 9.86099 10.5547 11.1668 12.1655 11.1668Z" fill="#FF9A25"/>
<path d="M8.75618 14.9744C8.58633 15.2481 8.22672 15.3324 7.95296 15.1625C7.6792 14.9927 7.59497 14.6331 7.76482 14.3593C8.56363 13.0718 10.1978 11.7502 12.1655 11.7502C14.1332 11.7502 15.7674 13.0718 16.5662 14.3593C16.7361 14.6331 16.6519 14.9927 16.3781 15.1625C16.1043 15.3324 15.7447 15.2481 15.5749 14.9744C14.9203 13.9193 13.6147 12.9168 12.1655 12.9168C10.7163 12.9168 9.41077 13.9193 8.75618 14.9744Z" fill="#FF9A25"/>
<path d="M8.60594 6.82666C8.74779 7.11592 8.62828 7.4654 8.33902 7.60725C7.80897 7.86717 7.49886 8.33871 7.49886 8.8335C7.49886 9.32828 7.80897 9.79982 8.33902 10.0597C8.62828 10.2016 8.74779 10.5511 8.60594 10.8403C8.4641 11.1296 8.11462 11.2491 7.82536 11.1072C6.96389 10.6848 6.33219 9.84472 6.33219 8.8335C6.33219 7.82227 6.96389 6.98219 7.82536 6.55975C8.11462 6.4179 8.4641 6.5374 8.60594 6.82666Z" fill="#FF9A25"/>
<path d="M6.42284 14.9744C6.253 15.2481 5.89338 15.3324 5.61963 15.1625C5.34587 14.9927 5.26164 14.6331 5.43148 14.3593C5.76929 13.8148 6.30977 13.3604 6.91275 13.0078C7.19086 12.8452 7.54814 12.9388 7.71076 13.2169C7.87338 13.495 7.77976 13.8523 7.50165 14.0149C6.99782 14.3095 6.62713 14.6451 6.42284 14.9744Z" fill="#FF9A25"/>
</svg>
