<svg width="188" height="150" viewBox="0 0 188 150" fill="none" xmlns="http://www.w3.org/2000/svg">
<rect x="0.25" width="187.5" height="150" fill="white"/>
<path fill-rule="evenodd" clip-rule="evenodd" d="M47.5 100.5H115.75C116.136 100.5 116.513 100.458 116.875 100.379C117.237 100.458 117.614 100.5 118 100.5H157C159.899 100.5 162.25 98.1495 162.25 95.25C162.25 92.3505 159.899 90 157 90H152.5C149.601 90 147.25 87.6495 147.25 84.75C147.25 81.8505 149.601 79.5 152.5 79.5H166.75C169.649 79.5 172 77.1495 172 74.25C172 71.3505 169.649 69 166.75 69H150.25C153.149 69 155.5 66.6495 155.5 63.75C155.5 60.8505 153.149 58.5 150.25 58.5H102.25C105.149 58.5 107.5 56.1495 107.5 53.25C107.5 50.3505 105.149 48 102.25 48H59.5C56.6005 48 54.25 50.3505 54.25 53.25C54.25 56.1495 56.6005 58.5 59.5 58.5H29.5C26.6005 58.5 24.25 60.8505 24.25 63.75C24.25 66.6495 26.6005 69 29.5 69H48.25C51.1495 69 53.5 71.3505 53.5 74.25C53.5 77.1495 51.1495 79.5 48.25 79.5H18.25C15.3505 79.5 13 81.8505 13 84.75C13 87.6495 15.3505 90 18.25 90H47.5C44.6005 90 42.25 92.3505 42.25 95.25C42.25 98.1495 44.6005 100.5 47.5 100.5ZM169.75 100.5C172.649 100.5 175 98.1495 175 95.25C175 92.3505 172.649 90 169.75 90C166.851 90 164.5 92.3505 164.5 95.25C164.5 98.1495 166.851 100.5 169.75 100.5Z" fill="#FBEAE9"/>
<path d="M129.625 33.75V38.25" stroke="#FBEAE9" stroke-width="1.875" stroke-linecap="round" stroke-linejoin="round"/>
<path d="M129.625 44.25V48.75" stroke="#FBEAE9" stroke-width="1.875" stroke-linecap="round" stroke-linejoin="round"/>
<path d="M122.125 41.25H126.625" stroke="#FBEAE9" stroke-width="1.875" stroke-linecap="round" stroke-linejoin="round"/>
<path d="M132.625 41.25H137.125" stroke="#FBEAE9" stroke-width="1.875" stroke-linecap="round" stroke-linejoin="round"/>
<path d="M67.375 111V114" stroke="#FBEAE9" stroke-width="1.875" stroke-linecap="round" stroke-linejoin="round"/>
<path d="M67.375 120V123" stroke="#FBEAE9" stroke-width="1.875" stroke-linecap="round" stroke-linejoin="round"/>
<path d="M61.375 117H64.375" stroke="#FBEAE9" stroke-width="1.875" stroke-linecap="round" stroke-linejoin="round"/>
<path d="M70.375 117H73.375" stroke="#FBEAE9" stroke-width="1.875" stroke-linecap="round" stroke-linejoin="round"/>
<path fill-rule="evenodd" clip-rule="evenodd" d="M120.784 98.3447C121.827 97.0674 122.764 95.7316 123.596 94.349C125.426 91.3082 126.745 88.0413 127.551 84.6731C128.366 81.2667 128.657 77.7566 128.421 74.2722C128.215 71.2317 127.608 68.2106 126.599 65.2948C125.598 62.4021 124.201 59.613 122.406 57.0113C121.337 55.4609 120.127 53.9772 118.775 52.5777C116.791 50.523 114.614 48.7664 112.301 47.309C109.817 45.7431 107.174 44.5226 104.445 43.6488C101.026 42.5545 97.4706 42.004 93.9144 42C91.1474 41.9969 88.3801 42.3246 85.6769 42.9844C82.6336 43.7271 79.6714 44.8907 76.8824 46.4769C74.4307 47.8713 72.1128 49.5923 69.991 51.641C67.3246 54.2156 65.1647 57.1179 63.5134 60.2239C61.8967 63.2649 60.7674 66.5011 60.1274 69.8165C59.468 73.2322 59.328 76.7319 59.7092 80.1883C60.2033 84.6683 61.5733 89.0758 63.8233 93.1339C65.263 95.7306 67.0631 98.1842 69.2247 100.422C72.6562 103.975 76.6625 106.637 80.9534 108.402C86.1715 110.548 91.8104 111.367 97.3485 110.85C101.996 110.416 106.573 109.04 110.771 106.718" fill="white"/>
<path d="M120.784 98.3447C121.827 97.0674 122.764 95.7316 123.596 94.349C125.426 91.3082 126.745 88.0413 127.551 84.6731C128.366 81.2667 128.657 77.7566 128.421 74.2722C128.215 71.2317 127.608 68.2106 126.599 65.2948C125.598 62.4021 124.201 59.613 122.406 57.0113C121.337 55.4609 120.127 53.9772 118.775 52.5777C116.791 50.523 114.614 48.7664 112.301 47.309C109.817 45.7431 107.174 44.5226 104.445 43.6488C101.026 42.5545 97.4706 42.004 93.9144 42C91.1474 41.9969 88.3801 42.3246 85.6769 42.9844C82.6336 43.7271 79.6715 44.8907 76.8824 46.4769C74.4307 47.8713 72.1128 49.5923 69.991 51.641C67.3246 54.2156 65.1647 57.1179 63.5134 60.2239C61.8967 63.2649 60.7674 66.5011 60.1274 69.8165C59.468 73.2322 59.328 76.7319 59.7092 80.1883C60.2033 84.6683 61.5733 89.0758 63.8233 93.1339C65.263 95.7306 67.0631 98.1842 69.2247 100.422C72.6562 103.975 76.6625 106.637 80.9534 108.402C86.1715 110.548 91.8104 111.367 97.3485 110.85C101.996 110.416 106.573 109.04 110.771 106.718" stroke="#FB0909" stroke-width="1.875" stroke-linecap="round" stroke-linejoin="round"/>
<path fill-rule="evenodd" clip-rule="evenodd" d="M113.274 105.283C115.454 103.88 117.392 102.13 118.652 100.718L113.274 105.283Z" fill="white"/>
<path d="M113.274 105.283C115.454 103.88 117.392 102.13 118.652 100.718" stroke="#FB0909" stroke-width="1.875" stroke-linecap="round"/>
<path d="M125.5 78.4627C125.285 78.4666 125.07 78.4685 124.855 78.4685C105.915 78.4685 90.4065 63.7022 89.1069 45C74.0314 47.378 62.5 60.4894 62.5 76.3076C62.5 93.8108 76.6191 108 94.0359 108C110.732 108 124.398 94.9609 125.5 78.4627Z" fill="#FBEAE9"/>
<path fill-rule="evenodd" clip-rule="evenodd" d="M83.3639 48.31C81.9012 48.8588 80.4725 49.5255 79.0922 50.3106C76.9474 51.5306 74.9196 53.0364 73.0634 54.8289C72.3025 55.5637 71.5887 56.329 70.9222 57.121M68.8568 59.8791C68.3268 60.68 67.8391 61.501 67.3936 62.3389C67.0646 62.9578 66.7587 63.586 66.4759 64.2221" fill="white"/>
<path d="M83.6932 49.1878C84.1779 49.0059 84.4235 48.4655 84.2416 47.9807C84.0597 47.496 83.5193 47.2504 83.0346 47.4323L83.6932 49.1878ZM79.0922 50.3106L79.5558 51.1255L79.0922 50.3106ZM73.0634 54.8289L72.4121 54.1545L73.0634 54.8289ZM70.2049 56.5173C69.8715 56.9135 69.9224 57.5049 70.3186 57.8383C70.7147 58.1717 71.3061 58.1208 71.6395 57.7246L70.2049 56.5173ZM69.6386 60.3965C69.9243 59.9647 69.8059 59.383 69.3742 59.0973C68.9424 58.8115 68.3607 58.9299 68.075 59.3617L69.6386 60.3965ZM67.3936 62.3389L68.2214 62.779L67.3936 62.3389ZM65.6192 63.8412C65.4089 64.3143 65.6219 64.8684 66.095 65.0787C66.5681 65.2891 67.1222 65.0761 67.3325 64.603L65.6192 63.8412ZM83.0346 47.4323C81.526 47.9982 80.0524 48.6859 78.6287 49.4957L79.5558 51.1255C80.8926 50.3651 82.2764 49.7193 83.6932 49.1878L83.0346 47.4323ZM78.6287 49.4957C76.4163 50.7542 74.3253 52.307 72.4121 54.1545L73.7146 55.5033C75.5139 53.7657 77.4785 52.3071 79.5558 51.1255L78.6287 49.4957ZM72.4121 54.1545C71.628 54.9118 70.8922 55.7007 70.2049 56.5173L71.6395 57.7246C72.2853 56.9573 72.977 56.2156 73.7146 55.5033L72.4121 54.1545ZM68.075 59.3617C67.5283 60.1878 67.0253 61.0346 66.5658 61.8989L68.2214 62.779C68.6529 61.9674 69.1253 61.1722 69.6386 60.3965L68.075 59.3617ZM66.5658 61.8989C66.2265 62.5373 65.9109 63.1851 65.6192 63.8412L67.3325 64.603C67.6065 63.9868 67.9028 63.3784 68.2214 62.779L66.5658 61.8989Z" fill="#FBEAE9"/>
<path d="M87.4011 67.5145C86.8804 66.9938 86.0362 66.9938 85.5155 67.5145C84.9948 68.0352 84.9948 68.8795 85.5155 69.4002L92.1152 75.9998L85.5155 82.5995C84.9948 83.1202 84.9948 83.9644 85.5155 84.4851C86.0362 85.0058 86.8804 85.0058 87.4011 84.4851L94.0008 77.8854L100.6 84.4851C101.121 85.0058 101.965 85.0058 102.486 84.4851C103.007 83.9644 103.007 83.1202 102.486 82.5995L95.8864 75.9998L102.486 69.4002C103.007 68.8795 103.007 68.0352 102.486 67.5145C101.965 66.9938 101.121 66.9938 100.6 67.5145L94.0008 74.1142L87.4011 67.5145Z" fill="#FB0909"/>
</svg>
