<svg width="34" height="35" viewBox="0 0 34 35" fill="none" xmlns="http://www.w3.org/2000/svg">
<circle cx="16.6058" cy="17.4242" r="16.6058" fill="#E8FAFF"/>
<path d="M16.1142 16.0296C16.3494 15.8532 16.4058 15.5238 16.2427 15.2791C16.0488 14.9883 15.6372 14.9475 15.3901 15.1947L14.92 15.6648C14.5945 15.9902 14.0669 15.9902 13.7415 15.6648C13.416 15.3393 13.416 14.8117 13.7415 14.4863L14.2115 14.0162C15.2024 13.0253 16.8521 13.1887 17.6295 14.3546C18.2832 15.3353 18.057 16.6558 17.1142 17.3629L17.0737 17.3933C16.9207 17.508 16.8307 17.688 16.8307 17.8792L16.8307 17.9922C16.8307 18.4524 16.4576 18.8255 15.9974 18.8255C15.5372 18.8255 15.1641 18.4524 15.1641 17.9922L15.1641 17.8792C15.1641 17.1634 15.5011 16.4894 16.0737 16.06L16.1142 16.0296Z" fill="#0F9770"/>
<path d="M15.1641 20.4922C15.1641 20.9524 15.5372 21.3255 15.9974 21.3255C16.4576 21.3255 16.8307 20.9524 16.8307 20.4922C16.8307 20.0319 16.4576 19.6589 15.9974 19.6589C15.5372 19.6589 15.1641 20.0319 15.1641 20.4922Z" fill="#0F9770"/>
<path fill-rule="evenodd" clip-rule="evenodd" d="M7.66406 17.5755C7.66406 12.9731 11.395 9.24219 15.9974 9.24219C20.5998 9.24219 24.3307 12.9731 24.3307 17.5755C24.3307 22.1779 20.5998 25.9089 15.9974 25.9089C11.395 25.9089 7.66406 22.1779 7.66406 17.5755ZM15.9974 10.9089C12.3155 10.9089 9.33073 13.8936 9.33073 17.5755C9.33073 21.2574 12.3155 24.2422 15.9974 24.2422C19.6793 24.2422 22.6641 21.2574 22.6641 17.5755C22.6641 13.8936 19.6793 10.9089 15.9974 10.9089Z" fill="#0F9770"/>
</svg>
