<svg width="20" height="20" viewBox="0 0 20 20" fill="none" xmlns="http://www.w3.org/2000/svg">
<path fill-rule="evenodd" clip-rule="evenodd" d="M11.998 2.54167C10.8128 1.65278 9.18318 1.65278 7.998 2.54167L2.27086 6.83702C1.35309 7.52535 0.85377 8.63725 0.949041 9.7805L1.47651 16.1102C1.62048 17.8378 3.0647 19.1667 4.79833 19.1667H15.1977C16.9313 19.1667 18.3755 17.8378 18.5195 16.1102L19.047 9.7805C19.1422 8.63725 18.6429 7.52535 17.7251 6.83702L11.998 2.54167ZM8.998 3.875C9.59059 3.43056 10.4054 3.43056 10.998 3.875L16.7251 8.17035C17.184 8.51452 17.4337 9.07047 17.386 9.6421L16.8586 15.9717C16.7866 16.8356 16.0645 17.5 15.1977 17.5H12.5703L12.7388 15.4787C12.8724 13.8752 11.607 12.5 9.998 12.5C8.38898 12.5 7.1236 13.8752 7.25722 15.4787L7.42567 17.5H4.79833C3.93152 17.5 3.20941 16.8356 3.13742 15.9717L2.60995 9.6421C2.56232 9.07047 2.81198 8.51452 3.27086 8.17035L8.998 3.875ZM11.0779 15.3403L10.8979 17.5H9.09811L8.91813 15.3403C8.86548 14.7085 9.36404 14.1667 9.998 14.1667C10.632 14.1667 11.1305 14.7085 11.0779 15.3403Z" fill="#09242D"/>
</svg>
