<svg width="20" height="20" viewBox="0 0 20 20" fill="none" xmlns="http://www.w3.org/2000/svg">
<path d="M3.72 15.1052L3.88416 15.9727C3.92751 16.2018 4.03686 16.4099 4.19907 16.5721C4.66415 17.0372 5.43873 17.0166 5.92915 16.5262L12.1919 10.2635C12.604 9.85136 13.1783 9.65111 13.7367 9.72477C15.3652 9.93955 16.924 8.76479 17.1946 7.11889L17.2546 6.75403C17.5964 4.67508 15.9326 2.91933 13.8445 3.15546L13.4489 3.20019C11.702 3.39775 10.4427 5.07514 10.7646 6.77593C10.8735 7.35145 10.6798 7.95851 10.2501 8.38822L9.12736 9.51095C8.85233 9.78598 8.51892 9.99466 8.15494 10.1196L7.12633 10.4726C6.55644 10.6682 6.10187 11.1228 5.90627 11.6927C5.74135 12.1732 5.39061 12.5758 4.93533 12.8073L4.86499 12.843C4.02199 13.2715 3.5496 14.2049 3.72 15.1052Z" stroke="black" stroke-width="1.5" stroke-linecap="round"/>
<circle cx="0.833333" cy="0.833333" r="0.833333" transform="matrix(0.707107 0.707107 0.707107 -0.707107 12.8594 6.38086)" fill="black"/>
</svg>
