<svg width="34" height="34" viewBox="0 0 34 34" fill="none" xmlns="http://www.w3.org/2000/svg">
<circle cx="16.6058" cy="17.0004" r="16.6058" fill="#E8ECFF"/>
<path d="M8.66406 10.9017C8.66406 10.4415 9.03716 10.0684 9.4974 10.0684H24.4974C24.9576 10.0684 25.3307 10.4415 25.3307 10.9017C25.3307 11.3619 24.9576 11.735 24.4974 11.735H9.4974C9.03716 11.735 8.66406 11.3619 8.66406 10.9017Z" fill="#1671D9"/>
<path d="M8.66406 15.0684C8.66406 14.6081 9.03716 14.235 9.4974 14.235H22.8307C23.291 14.235 23.6641 14.6081 23.6641 15.0684C23.6641 15.5286 23.291 15.9017 22.8307 15.9017H9.4974C9.03716 15.9017 8.66406 15.5286 8.66406 15.0684Z" fill="#1671D9"/>
<path d="M9.4974 18.4017C9.03716 18.4017 8.66406 18.7748 8.66406 19.235C8.66406 19.6953 9.03716 20.0684 9.4974 20.0684H21.1641C21.6243 20.0684 21.9974 19.6953 21.9974 19.235C21.9974 18.7748 21.6243 18.4017 21.1641 18.4017H9.4974Z" fill="#1671D9"/>
<path d="M8.66406 23.4017C8.66406 22.9415 9.03716 22.5684 9.4974 22.5684H19.4974C19.9576 22.5684 20.3307 22.9415 20.3307 23.4017C20.3307 23.8619 19.9576 24.235 19.4974 24.235H9.4974C9.03716 24.235 8.66406 23.8619 8.66406 23.4017Z" fill="#1671D9"/>
<path d="M24.4974 21.735C24.4974 21.2748 24.1243 20.9017 23.6641 20.9017C23.2038 20.9017 22.8307 21.2748 22.8307 21.735V22.5684H21.9974C21.5372 22.5684 21.1641 22.9415 21.1641 23.4017C21.1641 23.8619 21.5372 24.235 21.9974 24.235H22.8307V25.0684C22.8307 25.5286 23.2038 25.9017 23.6641 25.9017C24.1243 25.9017 24.4974 25.5286 24.4974 25.0684V24.235H25.3307C25.791 24.235 26.1641 23.8619 26.1641 23.4017C26.1641 22.9415 25.791 22.5684 25.3307 22.5684H24.4974V21.735Z" fill="#1671D9"/>
</svg>
