<svg width="34" height="35" viewBox="0 0 34 35" fill="none" xmlns="http://www.w3.org/2000/svg">
<circle cx="16.6058" cy="17.4242" r="16.6058" fill="#FBEAE9"/>
<path d="M10.3307 21.3268C10.3307 20.8666 9.95763 20.4935 9.4974 20.4935C9.03716 20.4935 8.66406 20.8666 8.66406 21.3268V22.5768C8.66406 24.4178 10.1564 25.9102 11.9974 25.9102L21.9974 25.9102C23.8383 25.9102 25.3307 24.4178 25.3307 22.5768V21.3268C25.3307 20.8666 24.9576 20.4935 24.4974 20.4935C24.0372 20.4935 23.6641 20.8666 23.6641 21.3268V22.5768C23.6641 23.4973 22.9179 24.2435 21.9974 24.2435L11.9974 24.2435C11.0769 24.2435 10.3307 23.4973 10.3307 22.5768V21.3268Z" fill="#D42620"/>
<path d="M17.5867 8.65424C17.2612 8.3288 16.7336 8.3288 16.4081 8.65423L13.0748 11.9876C12.7494 12.313 12.7494 12.8406 13.0748 13.1661C13.4002 13.4915 13.9279 13.4915 14.2533 13.1661L16.1641 11.2553L16.1641 20.9102C16.1641 21.3704 16.5372 21.7435 16.9974 21.7435C17.4576 21.7435 17.8307 21.3704 17.8307 20.9102L17.8307 11.2553L19.7415 13.1661C20.0669 13.4915 20.5945 13.4915 20.92 13.1661C21.2454 12.8406 21.2454 12.313 20.92 11.9876L17.5867 8.65424Z" fill="#D42620"/>
</svg>
