<svg width="20" height="20" viewBox="0 0 20 20" fill="none" xmlns="http://www.w3.org/2000/svg">
<path fill-rule="evenodd" clip-rule="evenodd" d="M9.99964 4.58343C7.92857 4.58343 6.24964 6.26236 6.24964 8.33343C6.24964 10.4045 7.92857 12.0834 9.99964 12.0834C12.0707 12.0834 13.7496 10.4045 13.7496 8.33343C13.7496 6.26236 12.0707 4.58343 9.99964 4.58343ZM7.91631 8.33343C7.91631 7.18283 8.84905 6.25009 9.99964 6.25009C11.1502 6.25009 12.083 7.18283 12.083 8.33343C12.083 9.48402 11.1502 10.4168 9.99964 10.4168C8.84905 10.4168 7.91631 9.48402 7.91631 8.33343Z" fill="black"/>
<path fill-rule="evenodd" clip-rule="evenodd" d="M6.50734 2.99342C8.62211 1.58357 11.3772 1.58357 13.4919 2.99342C16.351 4.89947 17.1537 8.74594 15.2956 11.6364L12.1026 16.6032C11.1185 18.134 8.88078 18.134 7.89669 16.6032L4.70372 11.6364C2.84558 8.74594 3.64826 4.89947 6.50734 2.99342ZM7.43184 4.38017C8.98677 3.34355 11.0125 3.34355 12.5674 4.38017C14.6696 5.78164 15.2598 8.60985 13.8936 10.7351L10.7006 15.702C10.3726 16.2122 9.62669 16.2122 9.29866 15.702L6.10569 10.7351C4.73944 8.60985 5.32963 5.78164 7.43184 4.38017Z" fill="black"/>
</svg>
