<svg width="14" height="12" viewBox="0 0 14 12" fill="none" xmlns="http://www.w3.org/2000/svg">
<path d="M0.335938 0.999837C0.335938 0.5396 0.709034 0.166504 1.16927 0.166504H12.8359C13.2962 0.166504 13.6693 0.5396 13.6693 0.999837C13.6693 1.46007 13.2962 1.83317 12.8359 1.83317H1.16927C0.709034 1.83317 0.335938 1.46007 0.335938 0.999837Z" fill="black"/>
<path d="M2.0026 5.99984C2.0026 5.5396 2.3757 5.1665 2.83594 5.1665H11.1693C11.6295 5.1665 12.0026 5.5396 12.0026 5.99984C12.0026 6.46007 11.6295 6.83317 11.1693 6.83317H2.83594C2.3757 6.83317 2.0026 6.46007 2.0026 5.99984Z" fill="black"/>
<path d="M4.5026 10.1665C4.04237 10.1665 3.66927 10.5396 3.66927 10.9998C3.66927 11.4601 4.04237 11.8332 4.5026 11.8332H9.5026C9.96284 11.8332 10.3359 11.4601 10.3359 10.9998C10.3359 10.5396 9.96284 10.1665 9.5026 10.1665H4.5026Z" fill="black"/>
</svg>
