<svg width="136" height="115" viewBox="0 0 136 115" fill="none" xmlns="http://www.w3.org/2000/svg">
<path d="M18.1343 35.0127L0.625 47.4405C0.625 47.4405 14.0546 68.4275 27.2472 73.7386L40.675 62.2516C40.6769 62.2516 25.2676 51.5238 18.1343 35.0127Z" fill="#F7F9FC"/>
<path d="M85.6719 99.132L86.996 108.147C86.996 108.147 99.8811 108.706 105.339 103.951L103.233 95.2061C103.233 95.2061 94.8071 99.7135 85.6719 99.132Z" fill="#F7F9FC"/>
<path d="M121.731 36.9279L135.775 26.1761C135.775 26.1761 122.966 4.25016 109.762 0.181641L97.6953 12.3928C97.6953 12.3928 113.484 21.5242 121.731 36.9279Z" fill="#F7F9FC"/>
<g opacity="0.6">
<path d="M35.9733 72.3145C34.5455 75.2256 33.3899 78.0645 32.5233 80.7626L26.2159 92.5145L19.4844 72.3145H35.9733Z" fill="#98A2B3"/>
<path d="M26.2116 92.9308C26.2005 92.9308 26.1875 92.9308 26.1764 92.9289C26.0116 92.9141 25.869 92.803 25.8172 92.6456L19.0838 72.4456C19.0412 72.3178 19.0635 72.1789 19.1412 72.0697C19.219 71.9604 19.3449 71.8975 19.4801 71.8975H35.9709C36.1153 71.8975 36.2486 71.9715 36.3246 72.0938C36.4005 72.216 36.4079 72.3678 36.3449 72.4975C34.9375 75.366 33.7857 78.1882 32.9172 80.89C32.9098 80.9141 32.8986 80.9382 32.8875 80.9604L26.5801 92.7123C26.5061 92.8475 26.3635 92.9308 26.2116 92.9308ZM20.0579 72.7308L26.3024 91.466L32.1357 80.5993C32.9524 78.0604 34.019 75.416 35.3061 72.7308H20.0579Z" fill="#F9FAFB"/>
</g>
<path d="M30.6206 92.5164H26.2188V92.5146L32.5262 80.7627C31.1243 85.1368 30.4724 89.146 30.6206 92.5164Z" fill="#D0D5DD"/>
<path d="M30.6154 92.9329H26.2135C25.9839 92.9329 25.7969 92.7459 25.7969 92.5162C25.7969 92.4477 25.8135 92.3773 25.8469 92.3162L32.1543 80.5644C32.2561 80.3755 32.4858 80.294 32.6839 80.3773C32.8821 80.4607 32.9839 80.6829 32.9172 80.8884C31.5172 85.2514 30.8839 89.157 31.0321 92.4977C31.0376 92.6107 30.995 92.7218 30.9172 92.8033C30.8376 92.8866 30.7302 92.9329 30.6154 92.9329ZM26.908 92.0996H30.1839C30.1265 89.7384 30.4358 87.1218 31.1043 84.281L26.908 92.0996Z" fill="#F9FAFB"/>
<path d="M35.3895 92.0137L35.2839 92.3766C34.745 94.2137 34.3395 95.9989 34.0765 97.684L34.0469 97.8766L34.1543 98.0396C34.758 98.96 35.5228 99.6859 36.4284 100.193L37.1135 100.578L37.1802 99.797C37.3654 97.6285 37.8543 95.2285 38.6302 92.6674L38.8284 92.0155H35.3895V92.0137Z" fill="#D0D5DD"/>
<path d="M37.1063 100.995C37.0359 100.995 36.9656 100.976 36.9026 100.941L36.2174 100.556C35.2545 100.015 34.4415 99.2448 33.8008 98.2671L33.6934 98.1041C33.6359 98.0171 33.6137 97.9133 33.6304 97.8115L33.66 97.6189C33.9267 95.9171 34.3359 94.1133 34.8804 92.2596L34.986 91.8967C35.0378 91.7189 35.2008 91.5967 35.386 91.5967H38.8211C38.9526 91.5967 39.0767 91.6596 39.1563 91.7652C39.2341 91.8708 39.2582 92.0078 39.2211 92.1337L39.023 92.7856C38.2545 95.3208 37.773 97.6911 37.5897 99.83L37.523 100.613C37.51 100.754 37.4285 100.88 37.3026 100.947C37.2397 100.978 37.173 100.995 37.1063 100.995ZM34.4785 97.78L34.4971 97.8078C35.0637 98.6726 35.7804 99.3522 36.6267 99.8282L36.7471 99.8967L36.7582 99.7596C36.9471 97.5615 37.4397 95.1337 38.2248 92.5448L38.26 92.43H35.6989L35.6804 92.493C35.1471 94.3134 34.7434 96.08 34.4841 97.7467L34.4785 97.78Z" fill="#F9FAFB"/>
<path d="M38.4663 72.3145H73.2941C69.007 79.6533 63.4904 86.4682 57.5496 91.7219C57.2441 91.9922 56.9385 92.2589 56.6329 92.5182H38.1515H35.7774H33.0163C32.6366 87.2904 34.5385 80.1033 38.4663 72.3145Z" fill="#E4E7EC"/>
<path d="M56.6274 92.9354H33.0108C32.7923 92.9354 32.6108 92.7669 32.596 92.5483C32.2052 87.1798 34.1571 79.9261 38.0904 72.1261C38.1608 71.9854 38.3052 71.8965 38.4626 71.8965H73.2904C73.4404 71.8965 73.5775 71.9761 73.6515 72.1057C73.7256 72.2354 73.7256 72.3946 73.6497 72.5243C69.3571 79.8743 63.7349 86.8039 57.8219 92.0335C57.5145 92.3057 57.2052 92.5724 56.8978 92.8354C56.8219 92.9002 56.7274 92.9354 56.6274 92.9354ZM33.4034 92.102H56.4756C56.7404 91.8761 57.0052 91.6446 57.27 91.4113C62.9515 86.3854 68.3608 79.7743 72.5608 72.7317H38.7182C35.0219 80.1243 33.1441 86.9724 33.4034 92.102Z" fill="#F9FAFB"/>
<path d="M70.0752 92.0135L69.9233 92.2042C67.0733 95.8116 64.0178 99.0672 60.8381 101.878C54.5511 107.441 48.377 110.632 43.8974 110.632C41.3715 110.632 39.5178 109.623 38.39 107.634C37.6104 106.258 37.1789 104.484 37.1067 102.36L37.0937 102.012L36.7641 101.899C35.9474 101.619 35.2029 101.217 34.5511 100.704L33.7733 100.091L33.7326 101.08C33.5918 104.484 34.1381 107.297 35.3548 109.447C37.0196 112.382 39.8474 113.932 43.5307 113.932C48.9881 113.932 55.8992 110.476 62.9918 104.199C66.4307 101.154 69.727 97.6264 72.7844 93.719C72.9567 93.5005 73.1252 93.282 73.2937 93.0616L74.1048 92.0098H70.0752V92.0135Z" fill="#98A2B3"/>
<path d="M43.532 114.35C39.6912 114.35 36.7375 112.726 34.9949 109.654C33.7375 107.436 33.1746 104.547 33.319 101.065L33.3598 100.076C33.3672 99.9207 33.4597 99.78 33.6023 99.7152C33.7449 99.6504 33.9116 99.6689 34.0338 99.767L34.8116 100.38C35.4246 100.863 36.1283 101.243 36.9005 101.508L37.2301 101.621C37.3931 101.676 37.506 101.828 37.5116 102L37.5246 102.349C37.5949 104.406 38.0098 106.115 38.7542 107.432C39.8023 109.282 41.532 110.219 43.8986 110.219C48.2783 110.219 54.3523 107.067 60.5635 101.569C63.7246 98.7744 66.7635 95.5374 69.5986 91.9485L69.7505 91.7559C69.8301 91.6559 69.9505 91.5967 70.0783 91.5967H74.1116C74.2709 91.5967 74.4153 91.6874 74.4857 91.83C74.556 91.9726 74.5394 92.143 74.4412 92.2689L73.6097 93.3467C73.4468 93.5596 73.2838 93.7708 73.1172 93.9819C70.0431 97.9096 66.7301 101.454 63.2727 104.515C56.1005 110.858 49.0912 114.35 43.532 114.35ZM34.1579 100.926L34.1505 101.1C34.0135 104.424 34.5412 107.163 35.719 109.243C37.306 112.039 40.0079 113.517 43.532 113.517C48.8875 113.517 55.7005 110.099 62.7172 103.889C66.1357 100.861 69.4135 97.3541 72.4579 93.4652C72.6227 93.2559 72.7838 93.0467 72.9449 92.8374L73.2598 92.4282H70.2764L70.2505 92.4615C67.3857 96.0893 64.3116 99.3633 61.1135 102.191C54.7523 107.821 48.4764 111.049 43.8968 111.049C41.2097 111.049 39.2357 109.969 38.0283 107.839C37.2153 106.406 36.7653 104.567 36.6894 102.374L36.6875 102.313L36.6301 102.293C35.7672 101.999 34.982 101.574 34.2949 101.032L34.1579 100.926Z" fill="#F9FAFB"/>
<path d="M95.2634 92.3379L95.3671 92.3749V92.3768L95.369 92.3749L95.4745 92.4138L95.3986 92.5564L95.2949 92.5194L95.1875 92.4786L95.2634 92.3379Z" fill="black"/>
<path d="M95.3955 92.9725C95.3492 92.9725 95.301 92.9651 95.2547 92.9484L95.0418 92.8725C94.927 92.8318 94.8381 92.7429 94.7936 92.6299C94.7492 92.517 94.7584 92.391 94.8158 92.2836L94.8918 92.141C94.9899 91.9596 95.2066 91.8762 95.3992 91.9447L95.5029 91.9818H95.5047L95.6121 92.0207C95.7269 92.0614 95.8158 92.1503 95.8603 92.2633C95.9047 92.3762 95.8955 92.5022 95.8381 92.6096L95.7621 92.7521C95.6881 92.891 95.5455 92.9725 95.3955 92.9725Z" fill="#F9FAFB"/>
<path d="M117.539 18.5557L124.226 38.6149L95.363 92.3742L88.6797 72.3149L106.695 38.7594L117.539 18.5557Z" fill="#98A2B3"/>
<path d="M95.3632 92.7907C95.3521 92.7907 95.3392 92.7907 95.3281 92.7889C95.1632 92.7741 95.0207 92.663 94.9688 92.5056L88.2873 72.4444C88.2503 72.3352 88.2614 72.2167 88.3151 72.1148L117.174 18.3556C117.252 18.2093 117.415 18.1241 117.576 18.137C117.741 18.1519 117.884 18.263 117.935 18.4204L124.621 38.4796C124.658 38.5889 124.647 38.7074 124.593 38.8093L95.7299 92.5685C95.6558 92.7074 95.5151 92.7907 95.3632 92.7907ZM89.1336 72.3537L95.454 91.3259L123.774 38.5759L117.45 19.6037L89.1336 72.3537Z" fill="#F9FAFB"/>
<path d="M95.2629 92.3348L95.3684 92.3719L88.6869 72.3145H75.8517C71.5536 79.8811 65.9573 86.9645 59.8906 92.5163H77.8406H95.2962L95.1869 92.4793L95.2629 92.3348Z" fill="#E4E7EC"/>
<path d="M95.2919 92.9335H59.8864C59.7141 92.9335 59.5604 92.828 59.4975 92.6669C59.4345 92.5057 59.4771 92.3243 59.6049 92.2094C65.5956 86.728 71.2364 79.5891 75.4864 72.1076C75.5604 71.978 75.6993 71.8965 75.8493 71.8965H88.6845C88.8641 71.8965 89.0234 72.0113 89.079 72.1817L95.7604 92.2409C95.8049 92.3742 95.779 92.5206 95.6919 92.6298C95.6419 92.8094 95.4808 92.9335 95.2919 92.9335ZM60.9456 92.1002H94.8345L88.3827 72.7317H76.0901C71.9975 79.8835 66.653 86.7169 60.9456 92.1002Z" fill="#F9FAFB"/>
<path d="M73.0037 71.8086L72.8574 72.0586C68.6111 79.3271 63.0574 86.1753 57.2148 91.3438C56.9111 91.6123 56.6074 91.8753 56.3055 92.1327C50.3518 97.1938 44.5093 100.097 40.2778 100.097C38.9833 100.097 37.8574 99.8327 36.9296 99.3123C36.1667 98.8845 35.5204 98.2697 35.0056 97.4845C34.9241 97.3604 34.8463 97.2327 34.7704 97.0993C34.0741 95.8716 33.6537 94.3178 33.5204 92.4827C33.1426 87.2771 35.0593 80.1956 38.9185 72.5438L39.2889 71.8104H35.6593L35.5204 72.0938C31.7889 79.703 29.8685 86.9641 30.1148 92.5419C30.2259 95.0641 30.7722 97.2086 31.7389 98.9141C32.3222 99.9438 33.0611 100.814 33.9333 101.503C34.6741 102.086 35.5185 102.544 36.4444 102.86C37.4963 103.22 38.663 103.401 39.9148 103.401C45.3722 103.401 52.2833 99.9456 59.3741 93.6678C59.663 93.4123 59.9481 93.1549 60.2352 92.8938C66.2926 87.3493 71.9963 80.129 76.2963 72.5678L76.7259 71.8123H73.0037V71.8086Z" fill="#D0D5DD"/>
<path d="M39.9098 103.815C38.6135 103.815 37.4005 103.626 36.3061 103.252C35.3357 102.92 34.4505 102.441 33.6709 101.828C32.7561 101.106 31.982 100.194 31.3709 99.1185C30.3727 97.3555 29.8079 95.1481 29.6931 92.5592C29.445 86.9129 31.3783 79.5796 35.1413 71.9092L35.2802 71.6259C35.3505 71.4833 35.495 71.3926 35.6542 71.3926H39.2839C39.4283 71.3926 39.5635 71.4685 39.6394 71.5907C39.7153 71.7148 39.7209 71.8685 39.6561 71.9963L39.2857 72.7296C35.4598 80.3166 33.5579 87.3204 33.932 92.4518C34.0598 94.2241 34.4635 95.7185 35.1283 96.8944C35.1968 97.0148 35.2709 97.137 35.3505 97.2574C35.8283 97.9833 36.4264 98.5537 37.1301 98.9481C37.995 99.4333 39.0524 99.6815 40.2746 99.6815C44.4098 99.6815 50.1542 96.8148 56.0339 91.8167C56.3339 91.5611 56.6357 91.3 56.9376 91.0333C62.7468 85.8944 68.2727 79.0815 72.4968 71.8518L72.6431 71.6018C72.7172 71.4741 72.8542 71.3944 73.0024 71.3944H76.719C76.8672 71.3944 77.0042 71.4741 77.0783 71.6018C77.1524 71.7296 77.1542 71.8889 77.0802 72.0167L76.6505 72.7722C72.332 80.3703 66.6005 87.6241 60.5098 93.1981C60.2227 93.4611 59.9339 93.7204 59.645 93.9778C52.4783 100.32 45.469 103.815 39.9098 103.815ZM35.9135 72.2259L35.8894 72.2759C32.1876 79.8222 30.2839 87.0129 30.5264 92.5222C30.6339 94.9778 31.1635 97.0592 32.0968 98.7074C32.6542 99.6889 33.3561 100.52 34.1876 101.174C34.8913 101.73 35.695 102.163 36.5764 102.463C37.5839 102.807 38.7061 102.981 39.9116 102.981C45.2672 102.981 52.0801 99.5629 59.095 93.3537C59.3801 93.1 59.6653 92.8444 59.9505 92.5833C65.9764 87.0667 71.6524 79.8833 75.9301 72.3574L76.0061 72.2241H73.2431L73.2172 72.2685C68.9505 79.5741 63.3653 86.4574 57.4913 91.6555C57.1857 91.9259 56.8801 92.1907 56.5746 92.45C50.5468 97.5741 44.6061 100.513 40.2764 100.513C38.9098 100.513 37.7135 100.23 36.7246 99.6741C35.9042 99.2129 35.2079 98.5518 34.6579 97.713C34.569 97.5778 34.4857 97.4407 34.4079 97.3037C33.6801 96.0204 33.2431 94.4092 33.1042 92.5111C32.7209 87.2315 34.6524 80.0741 38.545 72.3537L38.6098 72.2241H35.9135V72.2259Z" fill="#F9FAFB"/>
<path d="M117.547 18.5566L106.703 38.7603L88.6881 72.3159H75.8548H73.2955H38.4677H35.9733H19.4844L48.3455 18.5566H117.547Z" fill="#D0D5DD"/>
<path d="M88.6832 72.7331H19.4795C19.3332 72.7331 19.198 72.6553 19.1221 72.5294C19.0462 72.4035 19.0425 72.2479 19.1128 72.1183L47.9739 18.359C48.0462 18.2239 48.1869 18.1387 48.3406 18.1387H117.542C117.689 18.1387 117.824 18.2164 117.9 18.3405C117.976 18.4646 117.98 18.622 117.909 18.7516L89.0499 72.5109C88.9777 72.6479 88.8369 72.7331 88.6832 72.7331ZM20.1758 71.8998H88.4351L116.846 18.9739H48.5906L20.1758 71.8998Z" fill="#F9FAFB"/>
<path d="M94.5576 31.5371C95.0891 31.5371 95.4483 31.939 95.378 32.4427C95.3039 32.9482 94.8187 33.3649 94.2909 33.3705L59.7965 33.8223C59.265 33.8223 58.9058 33.4186 58.978 32.9186C59.052 32.4112 59.5372 31.9964 60.0632 31.989L94.5576 31.5371Z" fill="#F7F9FC"/>
<path d="M89.9478 39.1562C90.483 39.1562 90.8404 39.5599 90.7682 40.0599C90.6941 40.5674 90.2089 40.9822 89.683 40.9896L55.1885 41.4414C54.6571 41.4414 54.2978 41.0396 54.3682 40.5359C54.4422 40.0303 54.9274 39.6137 55.4552 39.6081L89.9478 39.1562Z" fill="#F7F9FC"/>
<path d="M85.3467 46.7773C85.8763 46.7773 86.2374 47.1792 86.1633 47.6829C86.0911 48.1884 85.6041 48.6051 85.08 48.6107L50.5856 49.0625C50.0541 49.0625 49.6948 48.6588 49.767 48.1588C49.8393 47.6514 50.3263 47.2366 50.8522 47.2292L85.3467 46.7773Z" fill="#F7F9FC"/>
<path d="M80.7359 54.3984C81.271 54.3984 81.6266 54.8021 81.5562 55.3021C81.4821 55.8096 80.997 56.2244 80.4692 56.2318L45.9747 56.6836C45.4451 56.6836 45.084 56.2818 45.1581 55.7781C45.2321 55.2725 45.7173 54.8558 46.2414 54.8503L80.7359 54.3984Z" fill="#F7F9FC"/>
<path d="M41.1628 28.6699C42.0276 28.7662 42.3239 29.4829 41.8295 30.2718C41.3369 31.0588 40.2388 31.6218 39.3739 31.5273C38.5147 31.4329 38.2128 30.7143 38.7054 29.9273C39.1999 29.1366 40.3036 28.5736 41.1628 28.6699Z" fill="#98A2B3"/>
<path d="M39.5719 31.9161C39.4922 31.9161 39.4126 31.9124 39.3348 31.9031C38.8052 31.8439 38.4071 31.592 38.2126 31.1902C38.0071 30.7661 38.07 30.2327 38.3867 29.7253C38.9589 28.8105 40.1959 28.1809 41.2052 28.292C41.7367 28.3513 42.1348 28.6031 42.3293 29.0031C42.5348 29.4272 42.47 29.9624 42.1515 30.4716C41.6256 31.3161 40.5311 31.9161 39.5719 31.9161ZM40.9663 29.0383C40.2719 29.0383 39.4163 29.5105 39.0293 30.129C38.8534 30.4087 38.8052 30.6772 38.8941 30.8605C38.97 31.0179 39.1571 31.1216 39.4182 31.1513C40.1348 31.2309 41.0941 30.7364 41.5089 30.0716C41.6867 29.7883 41.7367 29.5198 41.6459 29.3364C41.57 29.179 41.383 29.0772 41.1219 29.0476C41.0719 29.0401 41.02 29.0383 40.9663 29.0383Z" fill="#F9FAFB"/>
<path d="M51.4899 12.1707C52.4455 12.2762 52.7584 13.1299 52.1307 14.0095L42.7362 27.304C42.5103 27.6244 42.0547 27.8429 41.701 27.804L41.6566 27.7966C41.3307 27.7392 41.2251 27.4577 41.3881 27.1558L48.7603 13.6373C49.227 12.7799 50.3918 12.1188 51.3584 12.1632C51.4047 12.1632 51.4473 12.1651 51.4899 12.1707Z" fill="#98A2B3"/>
<path d="M41.7909 28.1854C41.7483 28.1854 41.7057 28.1836 41.6631 28.178C41.6557 28.178 41.6483 28.1762 41.6409 28.1743L41.5964 28.1669C41.3242 28.1187 41.1168 27.9706 41.0094 27.7484C40.8983 27.5169 40.9168 27.2354 41.0594 26.9724L48.4335 13.4539C48.9723 12.4669 50.2705 11.7317 51.3816 11.7817C51.4409 11.7854 51.4872 11.7873 51.5353 11.7928C52.0983 11.8558 52.5316 12.141 52.7279 12.5799C52.9464 13.0669 52.8427 13.6687 52.4427 14.228L43.0501 27.5206C42.7686 27.9206 42.2557 28.1854 41.7909 28.1854ZM41.7557 27.4262C41.976 27.4447 42.2872 27.2873 42.4297 27.0836L51.8242 13.7891C52.0612 13.4576 52.139 13.1224 52.0353 12.8891C51.9501 12.7002 51.7427 12.578 51.452 12.5465C51.4186 12.5428 51.3872 12.541 51.3538 12.5391C50.5223 12.5021 49.4946 13.0873 49.0983 13.8169L41.726 27.3354C41.7057 27.3724 41.7001 27.3984 41.6964 27.4132C41.7038 27.415 41.7131 27.4187 41.7279 27.4206L41.7557 27.4262Z" fill="#F9FAFB"/>
<path d="M53.7946 8.46123C61.8779 9.35383 64.6779 16.0723 60.0538 23.4668C55.4316 30.8575 45.1316 36.1279 37.0483 35.2353C28.9686 34.3427 26.1686 27.6242 30.7909 20.2335C35.4149 12.8372 45.7149 7.56679 53.7946 8.46123Z" fill="#98A2B3"/>
<path d="M38.8691 35.7111C38.2395 35.7111 37.6191 35.6778 37.0117 35.6111C33.1617 35.1852 30.3117 33.4426 28.9857 30.7055C27.5469 27.7352 28.0894 23.8444 30.4746 20.0315C35.1598 12.537 45.645 7.17961 53.8413 8.08517C57.6913 8.51109 60.5432 10.2537 61.8691 12.9926C63.308 15.9629 62.7654 19.8555 60.3802 23.6685C56.0413 30.6037 46.7339 35.7111 38.8691 35.7111ZM51.9635 8.74073C44.3487 8.74073 35.3283 13.6981 31.1172 20.4315C28.8746 24.0185 28.3469 27.6407 29.6691 30.3722C30.8765 32.8667 33.5154 34.4592 37.095 34.8555C45.0357 35.7333 55.1913 30.5333 59.7376 23.2629C61.982 19.6759 62.5098 16.0518 61.1876 13.3204C59.9783 10.8241 57.3413 9.23332 53.7598 8.83702C53.1709 8.77221 52.5709 8.74073 51.9635 8.74073Z" fill="#F9FAFB"/>
<path d="M41.8277 30.2704C42.3202 29.4815 42.0258 28.763 41.161 28.6685C40.3017 28.5741 39.198 29.1371 38.7054 29.926C38.2128 30.713 38.5147 31.4315 39.3739 31.526C40.2388 31.6204 41.3369 31.0574 41.8277 30.2704Z" fill="#F9FAFB"/>
<path d="M39.5641 31.9151C39.4844 31.9151 39.4048 31.9114 39.327 31.9021C38.7974 31.8429 38.3992 31.591 38.2048 31.1892C37.9992 30.7651 38.0622 30.2318 38.3789 29.7244C38.9511 28.8095 40.1863 28.1799 41.1974 28.291C41.7289 28.3503 42.127 28.6021 42.3215 29.0021C42.527 29.4262 42.4622 29.9614 42.1437 30.4707C41.6178 31.3151 40.5233 31.9151 39.5641 31.9151ZM40.9585 29.0373C40.2641 29.0373 39.4085 29.5095 39.0215 30.1281C38.8455 30.4077 38.7974 30.6762 38.8863 30.8595C38.9622 31.017 39.1492 31.1207 39.4104 31.1503C40.1289 31.2299 41.0863 30.7355 41.5011 30.0707C41.6789 29.7873 41.7289 29.5188 41.6381 29.3355C41.5622 29.1781 41.3752 29.0762 41.1141 29.0466C41.0641 29.0392 41.0122 29.0373 40.9585 29.0373Z" fill="#F9FAFB"/>
<path d="M52.1296 14.0075C52.7574 13.1297 52.4445 12.276 51.4889 12.1686C51.4463 12.163 51.4037 12.1612 51.3593 12.1593C50.3926 12.1149 49.2278 12.776 48.7611 13.6334L41.3889 27.1519C41.2241 27.4538 41.3315 27.7353 41.6574 27.7927L41.7019 27.8001C42.0556 27.839 42.5111 27.6205 42.737 27.3001L52.1296 14.0075Z" fill="#F9FAFB"/>
<path d="M41.7909 28.1854C41.7483 28.1854 41.7057 28.1836 41.6631 28.178C41.6557 28.178 41.6483 28.1762 41.6409 28.1743L41.5964 28.1669C41.3242 28.1187 41.1168 27.9706 41.0094 27.7484C40.8983 27.5169 40.9168 27.2354 41.0594 26.9724L48.4335 13.4539C48.9723 12.4669 50.2705 11.7317 51.3816 11.7817C51.439 11.7854 51.4872 11.7873 51.5353 11.7928C52.0983 11.8558 52.5316 12.141 52.7279 12.5799C52.9464 13.0669 52.8427 13.6687 52.4427 14.228L43.0501 27.5206C42.7686 27.9206 42.2557 28.1854 41.7909 28.1854ZM41.7557 27.4262C41.9723 27.4447 42.2872 27.2873 42.4297 27.0836L51.8242 13.7891V13.7873C52.0594 13.4576 52.139 13.1206 52.0335 12.8891C51.9483 12.7002 51.7409 12.578 51.4501 12.5465C51.4168 12.5428 51.3853 12.541 51.352 12.5391C50.5186 12.5002 49.4946 13.0873 49.0964 13.8169L41.7242 27.3354C41.7038 27.3724 41.6983 27.3984 41.6946 27.4132C41.702 27.415 41.7112 27.4187 41.726 27.4206L41.7557 27.4262Z" fill="#F9FAFB"/>
</svg>
