<svg width="34" height="34" viewBox="0 0 34 34" fill="none" xmlns="http://www.w3.org/2000/svg">
<circle cx="16.6058" cy="16.9242" r="16.6058" fill="#FFF6E8"/>
<path fill-rule="evenodd" clip-rule="evenodd" d="M17.83 9.75911C17.83 9.29888 17.4569 8.92578 16.9967 8.92578C16.5365 8.92578 16.1634 9.29888 16.1634 9.75911V10.2348C13.3366 10.6391 11.1634 13.0693 11.1634 16.0082L11.1634 19.3419C11.1634 19.3419 11.1634 19.3417 11.1634 19.3419C11.1633 19.3435 11.1627 19.3546 11.1591 19.3765C11.1548 19.4027 11.1471 19.4385 11.1344 19.4844C11.1086 19.5774 11.0676 19.6933 11.0103 19.8303C10.8954 20.1051 10.7334 20.4213 10.5543 20.7404C10.2175 21.3404 10.0477 22.0553 10.1752 22.7352C10.3096 23.4521 10.7711 24.0774 11.5593 24.3775C12.2634 24.6456 13.2006 24.8907 14.4383 25.0366C14.4677 25.0622 14.5025 25.0914 14.5425 25.1234C14.6678 25.2236 14.8467 25.3534 15.0728 25.4827C15.5217 25.7391 16.1852 26.0091 16.9967 26.0091C17.8082 26.0091 18.4718 25.7391 18.9206 25.4827C19.1467 25.3534 19.3256 25.2236 19.4509 25.1234C19.4909 25.0914 19.5257 25.0622 19.5552 25.0366C20.7929 24.8907 21.7301 24.6456 22.4342 24.3775C23.2223 24.0774 23.6838 23.4521 23.8182 22.7352C23.9457 22.0553 23.7759 21.3404 23.4391 20.7404C23.26 20.4213 23.098 20.1051 22.9832 19.8303C22.9258 19.6933 22.8848 19.5774 22.8591 19.4844C22.8463 19.4385 22.8386 19.4027 22.8343 19.3765C22.8307 19.3546 22.8301 19.3437 22.8301 19.3421C22.83 19.3419 22.8301 19.3421 22.8301 19.3421L22.83 19.335V16.0086C22.83 13.0698 20.6569 10.6391 17.83 10.2348V9.75911ZM12.83 16.0082C12.83 13.7072 14.6953 11.8424 16.9967 11.8424C19.298 11.8424 21.1634 13.7075 21.1634 16.0086V19.3424C21.1634 19.7282 21.3079 20.1443 21.4455 20.4734C21.595 20.8308 21.7909 21.2091 21.9858 21.5563C22.1753 21.8938 22.2205 22.2128 22.1801 22.4281C22.1467 22.6062 22.0576 22.7374 21.8411 22.8199C20.9454 23.1609 19.4333 23.5091 16.9967 23.5091C14.5601 23.5091 13.048 23.1609 12.1523 22.8199C11.9358 22.7374 11.8467 22.6063 11.8133 22.4281C11.773 22.2128 11.8181 21.8938 12.0076 21.5563C12.2025 21.2091 12.3984 20.8308 12.5479 20.4734C12.6855 20.1443 12.83 19.7282 12.83 19.3424V16.0082Z" fill="#F56630"/>
</svg>
