<svg width="14" height="19" viewBox="0 0 14 19" fill="none" xmlns="http://www.w3.org/2000/svg">
<path fill-rule="evenodd" clip-rule="evenodd" d="M7.0026 0.666992C4.70142 0.666992 2.83594 2.53247 2.83594 4.83366C2.83594 7.13485 4.70142 9.00033 7.0026 9.00033C9.30379 9.00033 11.1693 7.13485 11.1693 4.83366C11.1693 2.53247 9.30379 0.666992 7.0026 0.666992ZM4.5026 4.83366C4.5026 3.45295 5.62189 2.33366 7.0026 2.33366C8.38332 2.33366 9.5026 3.45295 9.5026 4.83366C9.5026 6.21437 8.38332 7.33366 7.0026 7.33366C5.62189 7.33366 4.5026 6.21437 4.5026 4.83366Z" fill="#667185"/>
<path fill-rule="evenodd" clip-rule="evenodd" d="M7.0026 18.167C5.71885 18.167 3.86079 17.8755 2.46546 17.2648C1.78046 16.965 1.08381 16.5359 0.679065 15.9148C0.466201 15.5882 0.331632 15.2034 0.336043 14.7738C0.340413 14.3482 0.48047 13.9404 0.715867 13.561C1.85703 11.7217 4.1916 9.83366 7.0026 9.83366C9.81361 9.83366 12.1482 11.7217 13.2893 13.561C13.5247 13.9404 13.6648 14.3482 13.6692 14.7738C13.6736 15.2034 13.539 15.5882 13.3261 15.9148C12.9214 16.5359 12.2247 16.965 11.5397 17.2648C10.1444 17.8755 8.28635 18.167 7.0026 18.167ZM2.1321 14.4397C2.02237 14.6165 2.00325 14.7301 2.00262 14.7909C2.00204 14.8479 2.01666 14.9147 2.07541 15.0049C2.21389 15.2174 2.55016 15.4826 3.13371 15.738C4.27547 16.2377 5.89697 16.5003 7.0026 16.5003C8.10824 16.5003 9.72973 16.2377 10.8715 15.738C11.455 15.4826 11.7913 15.2174 11.9298 15.0049C11.9886 14.9147 12.0032 14.8479 12.0026 14.7909C12.002 14.7301 11.9828 14.6165 11.8731 14.4397C10.938 12.9324 9.07288 11.5003 7.0026 11.5003C4.93232 11.5003 3.06722 12.9324 2.1321 14.4397Z" fill="#667185"/>
</svg>
