<svg width="21" height="20" viewBox="0 0 21 20" fill="none" xmlns="http://www.w3.org/2000/svg">
<path d="M7.16667 4.99967C6.70643 4.99967 6.33333 5.37277 6.33333 5.83301C6.33333 6.29324 6.70643 6.66634 7.16667 6.66634H13.8333C14.2936 6.66634 14.6667 6.29324 14.6667 5.83301C14.6667 5.37277 14.2936 4.99967 13.8333 4.99967H7.16667Z" fill="#98A2B3"/>
<path d="M6.33333 9.99967C6.33333 9.53944 6.70643 9.16634 7.16667 9.16634H13.8333C14.2936 9.16634 14.6667 9.53944 14.6667 9.99967C14.6667 10.4599 14.2936 10.833 13.8333 10.833H7.16667C6.70643 10.833 6.33333 10.4599 6.33333 9.99967Z" fill="#98A2B3"/>
<path d="M7.16667 13.333C6.70643 13.333 6.33333 13.7061 6.33333 14.1663C6.33333 14.6266 6.70643 14.9997 7.16667 14.9997H9.38889C9.84913 14.9997 10.2222 14.6266 10.2222 14.1663C10.2222 13.7061 9.84913 13.333 9.38889 13.333H7.16667Z" fill="#98A2B3"/>
<path d="M11.6111 13.333C11.1509 13.333 10.7778 13.7061 10.7778 14.1663C10.7778 14.6266 11.1509 14.9997 11.6111 14.9997H13.8333C14.2936 14.9997 14.6667 14.6266 14.6667 14.1663C14.6667 13.7061 14.2936 13.333 13.8333 13.333H11.6111Z" fill="#98A2B3"/>
<path fill-rule="evenodd" clip-rule="evenodd" d="M13.4015 18.2507C13.4952 18.2741 13.5861 18.3077 13.6724 18.3509C15.6607 19.345 18 17.8993 18 15.6763V4.16634C18 2.32539 16.5076 0.833008 14.6667 0.833008H6.33333C4.49238 0.833008 3 2.32539 3 4.16634V15.6763C3 17.8993 5.33933 19.345 7.32757 18.3509C7.41395 18.3077 7.50479 18.2741 7.59848 18.2507L10.0958 17.6264C10.3612 17.56 10.6388 17.56 10.9042 17.6264L13.4015 18.2507ZM4.66667 4.16634C4.66667 3.24587 5.41286 2.49967 6.33333 2.49967H14.6667C15.5871 2.49967 16.3333 3.24587 16.3333 4.16634V15.6763C16.3333 16.6603 15.2979 17.3002 14.4178 16.8602C14.2226 16.7626 14.0174 16.6867 13.8057 16.6338L11.3085 16.0095C10.7777 15.8768 10.2223 15.8768 9.69155 16.0095L7.19426 16.6338C6.98259 16.6867 6.77736 16.7626 6.58221 16.8602C5.70214 17.3002 4.66667 16.6603 4.66667 15.6763V4.16634Z" fill="#98A2B3"/>
</svg>
