<svg width="34" height="35" viewBox="0 0 34 35" fill="none" xmlns="http://www.w3.org/2000/svg">
<circle cx="16.6058" cy="17.4242" r="16.6058" fill="#FFFCE8"/>
<path d="M11.9974 20.9089C11.5372 20.9089 11.1641 21.2819 11.1641 21.7422C11.1641 22.2024 11.5372 22.5755 11.9974 22.5755H18.6641C19.1243 22.5755 19.4974 22.2024 19.4974 21.7422C19.4974 21.2819 19.1243 20.9089 18.6641 20.9089H11.9974Z" fill="#DD900D"/>
<path d="M11.1641 19.2422C11.1641 18.7819 11.5372 18.4089 11.9974 18.4089H18.6641C19.1243 18.4089 19.4974 18.7819 19.4974 19.2422C19.4974 19.7024 19.1243 20.0755 18.6641 20.0755H11.9974C11.5372 20.0755 11.1641 19.7024 11.1641 19.2422Z" fill="#DD900D"/>
<path d="M17.8307 15.9089C17.3705 15.9089 16.9974 16.2819 16.9974 16.7422C16.9974 17.2024 17.3705 17.5755 17.8307 17.5755H18.6641C19.1243 17.5755 19.4974 17.2024 19.4974 16.7422C19.4974 16.2819 19.1243 15.9089 18.6641 15.9089H17.8307Z" fill="#DD900D"/>
<path d="M16.9974 14.2422C16.9974 13.782 17.3705 13.4089 17.8307 13.4089H18.6641C19.1243 13.4089 19.4974 13.782 19.4974 14.2422C19.4974 14.7024 19.1243 15.0755 18.6641 15.0755H17.8307C17.3705 15.0755 16.9974 14.7024 16.9974 14.2422Z" fill="#DD900D"/>
<path fill-rule="evenodd" clip-rule="evenodd" d="M12.8307 12.5755C11.9103 12.5755 11.1641 13.3217 11.1641 14.2422V15.9089C11.1641 16.8293 11.9103 17.5755 12.8307 17.5755H14.4974C15.4179 17.5755 16.1641 16.8293 16.1641 15.9089V14.2422C16.1641 13.3217 15.4179 12.5755 14.4974 12.5755H12.8307ZM12.8307 14.2422H14.4974V15.9089H12.8307V14.2422Z" fill="#DD900D"/>
<path fill-rule="evenodd" clip-rule="evenodd" d="M11.1641 9.24219C9.78335 9.24219 8.66406 10.3615 8.66406 11.7422V23.4089C8.66406 24.7896 9.78335 25.9089 11.1641 25.9089H23.6641C25.0448 25.9089 26.1641 24.7896 26.1641 23.4089V21.7422C26.1641 20.3615 25.0448 19.2422 23.6641 19.2422H21.9974V11.7422C21.9974 10.3615 20.8781 9.24219 19.4974 9.24219H11.1641ZM23.6641 24.2422H21.9974V20.9089H23.6641C24.1243 20.9089 24.4974 21.2819 24.4974 21.7422V23.4089C24.4974 23.8691 24.1243 24.2422 23.6641 24.2422ZM20.3307 24.2422H11.1641C10.7038 24.2422 10.3307 23.8691 10.3307 23.4089V11.7422C10.3307 11.282 10.7038 10.9089 11.1641 10.9089H19.4974C19.9576 10.9089 20.3307 11.282 20.3307 11.7422V24.2422Z" fill="#DD900D"/>
</svg>
