<svg width="34" height="34" viewBox="0 0 34 34" fill="none" xmlns="http://www.w3.org/2000/svg">
<circle cx="16.6058" cy="16.8168" r="16.6058" fill="#FBEAE9"/>
<path fill-rule="evenodd" clip-rule="evenodd" d="M15.7178 9.27549C16.2514 9.54572 16.6858 9.862 17.0026 10.1279C17.3195 9.862 17.7538 9.54572 18.2874 9.27549C19.4965 8.66312 21.2367 8.28437 23.1937 9.27548C24.4438 9.90859 25.2894 10.8666 25.7499 12.0296C26.2042 13.1771 26.266 14.4761 26.0473 15.7941C25.6747 18.0396 24.1399 20.0433 22.5636 21.5871C20.9677 23.1502 19.2178 24.349 18.2309 24.974C17.4755 25.4525 16.5298 25.4525 15.7744 24.9741C14.7875 24.349 13.0375 23.1502 11.4416 21.5871C9.86526 20.0433 8.33045 18.0396 7.95787 15.7941C7.73919 14.4761 7.80091 13.1771 8.25522 12.0296C8.71571 10.8666 9.56134 9.90859 10.8114 9.27548C12.7684 8.28437 14.5087 8.66312 15.7178 9.27549ZM16.3677 11.8208C16.526 12.007 16.7582 12.1143 17.0026 12.1143C17.2467 12.1143 17.4784 12.0073 17.6367 11.8217C17.6369 11.8215 17.6371 11.8213 17.6373 11.8211C17.6375 11.8208 17.6377 11.8206 17.6379 11.8203L17.6505 11.8061C17.6635 11.7917 17.6853 11.768 17.7155 11.7368C17.776 11.6742 17.8695 11.5821 17.9926 11.4744C18.2407 11.2573 18.5987 10.986 19.0404 10.7623C19.9079 10.323 21.075 10.0707 22.4407 10.7623C23.3324 11.2139 23.8917 11.8638 24.2003 12.6432C24.5151 13.4382 24.5864 14.4162 24.4031 15.5213C24.1186 17.2361 22.8957 18.929 21.3974 20.3964C19.9188 21.8446 18.2772 22.9719 17.3391 23.566C17.1282 23.6996 16.8771 23.6996 16.6662 23.566C15.728 22.9719 14.0864 21.8446 12.6077 20.3964C11.1094 18.929 9.88658 17.2361 9.60206 15.5213C9.4187 14.4162 9.49008 13.4382 9.80485 12.6432C10.1134 11.8638 10.6728 11.2139 11.5644 10.7623C12.9301 10.0707 14.0973 10.323 14.9648 10.7623C15.4065 10.986 15.7646 11.2573 16.0127 11.4744C16.1358 11.5821 16.2293 11.6742 16.2898 11.7368C16.32 11.768 16.3418 11.7917 16.3547 11.8061L16.3677 11.8208Z" fill="#D42620"/>
</svg>
