<svg width="20" height="20" viewBox="0 0 20 20" fill="none" xmlns="http://www.w3.org/2000/svg">
<path fill-rule="evenodd" clip-rule="evenodd" d="M5.9601 13.3696C5.77342 12.717 5.89416 12.0326 6.25736 11.4934C5.60873 11.5383 4.95566 11.3006 4.48383 10.8127L2.13352 8.38193C0.827114 7.03081 1.65487 4.76835 3.52476 4.57933L16.38 3.27984C18.3099 3.08475 19.5657 5.25989 18.4318 6.8337L10.8788 17.3169C9.78014 18.8417 7.40692 18.4274 6.89002 16.6204L5.9601 13.3696ZM7.98465 12.5428L15.4295 7.5793L9.25609 16.1477C9.13402 16.3172 8.87033 16.2711 8.81289 16.0704L7.88297 12.8196C7.85306 12.715 7.89417 12.6031 7.98465 12.5428ZM3.72591 6.56919L14.2331 5.50705L6.21215 9.47276C6.11467 9.52096 5.99722 9.50061 5.92163 9.42243L3.57132 6.9917L2.97175 7.57143L3.57132 6.9917C3.42617 6.84158 3.51814 6.59019 3.72591 6.56919L3.63771 5.69672L3.72591 6.56919Z" fill="#7E7E7E"/>
</svg>
