<svg width="23" height="20" viewBox="0 0 23 20" fill="none" xmlns="http://www.w3.org/2000/svg">
<rect width="22.8571" height="20" rx="3.57143" fill="#FFFCED"/>
<path d="M9.84856 4.30054C10.3803 3.45516 11.6249 3.45516 12.1566 4.30054L13.4426 6.34504C13.6296 6.64248 13.9268 6.85593 14.2708 6.93989L16.6352 7.51707C17.6128 7.75572 17.9974 8.92588 17.3484 9.68701L15.7788 11.5278C15.5504 11.7955 15.4369 12.1409 15.4624 12.4903L15.6378 14.8915C15.7103 15.8843 14.7033 16.6075 13.7705 16.2326L11.5145 15.3257C11.1863 15.1938 10.8189 15.1938 10.4907 15.3257L8.23472 16.2326C7.30189 16.6075 6.29494 15.8843 6.36744 14.8915L6.54278 12.4903C6.56829 12.1409 6.45477 11.7955 6.22642 11.5278L4.6568 9.68701C4.00778 8.92588 4.3924 7.75572 5.37004 7.51707L7.73439 6.93989C8.07837 6.85593 8.37557 6.64248 8.56265 6.34504L9.84856 4.30054Z" fill="#F1C644"/>
</svg>
