<svg width="20" height="20" viewBox="0 0 20 20" fill="none" xmlns="http://www.w3.org/2000/svg">
<mask id="path-2-outside-1_5454_10121" maskUnits="userSpaceOnUse" x="2" y="2" width="15" height="16" fill="black">
<rect fill="white" x="2" y="2" width="15" height="16"/>
<path d="M6.4816 12.032C6.7632 13.5168 7.864 14.1312 9.6816 14.1312C11.2432 14.1312 12.3184 13.6192 12.3184 12.672C12.3184 11.9552 11.7296 11.4432 10.7056 11.264L8.0432 10.8032C6.2 10.496 4.4848 9.5744 4.4848 7.3984C4.4848 5.0688 6.5072 3.6352 9.5024 3.6352C11.832 3.6352 14.52 4.4288 14.776 7.5776H12.3184C12.1904 6.272 11.0384 5.76 9.5024 5.76C7.9664 5.76 7.1216 6.3232 7.1216 7.168C7.1216 7.808 7.5824 8.4224 8.9904 8.6528L11.2432 9.0112C13.0608 9.344 14.8528 10.1376 14.8528 12.4672C14.8528 15.0016 12.6256 16.3072 9.6048 16.3072C6.7632 16.3072 4.3312 15.1808 4.024 12.0064L6.4816 12.032Z"/>
</mask>
<path d="M6.4816 12.032L8.05358 11.7339L7.80928 10.4457L6.49827 10.4321L6.4816 12.032ZM10.7056 11.264L10.9814 9.68795L10.9785 9.68744L10.7056 11.264ZM8.0432 10.8032L8.31607 9.22661L8.30624 9.22497L8.0432 10.8032ZM14.776 7.5776V9.1776H16.5114L16.3707 7.44795L14.776 7.5776ZM12.3184 7.5776L10.726 7.73371L10.8676 9.1776H12.3184V7.5776ZM8.9904 8.6528L8.73202 10.2318L8.73902 10.2329L8.9904 8.6528ZM11.2432 9.0112L11.5314 7.43736L11.513 7.434L11.4946 7.43107L11.2432 9.0112ZM4.024 12.0064L4.04067 10.4065L2.2599 10.3879L2.43144 12.1605L4.024 12.0064ZM4.90962 12.3301C5.12129 13.4462 5.68832 14.3836 6.65182 14.9916C7.54966 15.5581 8.62439 15.7312 9.6816 15.7312V12.5312C8.92121 12.5312 8.53674 12.3971 8.35938 12.2852C8.24768 12.2148 8.12351 12.1026 8.05358 11.7339L4.90962 12.3301ZM9.6816 15.7312C10.6017 15.7312 11.5528 15.5858 12.336 15.1699C13.1764 14.7236 13.9184 13.8867 13.9184 12.672H10.7184C10.7184 12.5875 10.7481 12.4792 10.8097 12.3901C10.8616 12.3149 10.8957 12.3116 10.8352 12.3437C10.6904 12.4206 10.3231 12.5312 9.6816 12.5312V15.7312ZM13.9184 12.672C13.9184 11.8229 13.5493 11.0852 12.9476 10.5605C12.3842 10.0692 11.6763 9.80955 10.9814 9.68795L10.4298 12.84C10.5862 12.8674 10.6953 12.9023 10.7654 12.932C10.8356 12.9618 10.8544 12.981 10.8444 12.9723C10.8317 12.9612 10.7944 12.9236 10.7622 12.855C10.7291 12.7845 10.7184 12.7175 10.7184 12.672H13.9184ZM10.9785 9.68744L8.31607 9.22664L7.77033 12.3798L10.4327 12.8406L10.9785 9.68744ZM8.30624 9.22497C7.5296 9.09553 6.94668 8.85918 6.58761 8.56461C6.29248 8.32248 6.0848 7.99906 6.0848 7.3984H2.8848C2.8848 8.97374 3.53472 10.1991 4.55799 11.0386C5.51732 11.8256 6.7136 12.2037 7.78016 12.3814L8.30624 9.22497ZM6.0848 7.3984C6.0848 6.75458 6.33862 6.28628 6.82064 5.93047C7.3493 5.54022 8.23818 5.2352 9.5024 5.2352V2.0352C7.77142 2.0352 6.1515 2.44698 4.92016 3.35594C3.64218 4.29932 2.8848 5.71262 2.8848 7.3984H6.0848ZM9.5024 5.2352C10.5254 5.2352 11.4521 5.41598 12.0988 5.8007C12.654 6.13095 13.0957 6.65537 13.1813 7.70725L16.3707 7.44795C16.2003 5.35103 15.17 3.90425 13.7348 3.0505C12.3911 2.25122 10.809 2.0352 9.5024 2.0352V5.2352ZM14.776 5.9776H12.3184V9.1776H14.776V5.9776ZM13.9108 7.42149C13.7954 6.24512 13.1737 5.34264 12.2485 4.79942C11.4072 4.30552 10.4117 4.16 9.5024 4.16V7.36C10.1291 7.36 10.4776 7.47048 10.6283 7.55898C10.6603 7.57773 10.6778 7.59229 10.6862 7.60008C10.6941 7.60742 10.6967 7.61133 10.6975 7.61258C10.6982 7.61373 10.7021 7.61968 10.7072 7.63487C10.7125 7.65063 10.721 7.68188 10.726 7.73371L13.9108 7.42149ZM9.5024 4.16C8.57192 4.16 7.64884 4.32535 6.90168 4.78195C6.08786 5.27928 5.5216 6.11606 5.5216 7.168H8.7216C8.7216 7.2341 8.70197 7.3277 8.64874 7.4162C8.59902 7.49888 8.55265 7.52325 8.57032 7.51245C8.62956 7.47625 8.89688 7.36 9.5024 7.36V4.16ZM5.5216 7.168C5.5216 7.91389 5.80923 8.66898 6.45693 9.25262C7.05802 9.79426 7.85667 10.0886 8.73202 10.2318L9.24878 7.0738C8.71613 6.98664 8.58038 6.85855 8.59907 6.87538C8.61541 6.89011 8.65404 6.93266 8.68482 7.00405C8.71469 7.07331 8.7216 7.13347 8.7216 7.168H5.5216ZM8.73902 10.2329L10.9918 10.5913L11.4946 7.43107L9.24178 7.07267L8.73902 10.2329ZM10.955 10.585C11.774 10.735 12.3704 10.9569 12.7403 11.2479C13.0249 11.4718 13.2528 11.7866 13.2528 12.4672H16.4528C16.4528 10.8182 15.7847 9.57142 14.7189 8.73291C13.7384 7.96149 12.53 7.62021 11.5314 7.43736L10.955 10.585ZM13.2528 12.4672C13.2528 13.191 12.9691 13.6653 12.4544 14.0197C11.8732 14.4198 10.9147 14.7072 9.6048 14.7072V17.9072C11.3157 17.9072 12.9812 17.5418 14.2688 16.6555C15.6229 15.7235 16.4528 14.2778 16.4528 12.4672H13.2528ZM9.6048 14.7072C8.36491 14.7072 7.40253 14.4568 6.76126 14.0225C6.18597 13.6328 5.7281 13.0048 5.61656 11.8523L2.43144 12.1605C2.6271 14.1824 3.53883 15.7048 4.96674 16.6719C6.32867 17.5944 8.00309 17.9072 9.6048 17.9072V14.7072ZM4.00733 13.6063L6.46493 13.6319L6.49827 10.4321L4.04067 10.4065L4.00733 13.6063Z" fill="#1D2739" mask="url(#path-2-outside-1_5454_10121)"/>
</svg>
