<svg width="40" height="40" viewBox="0 0 40 40" fill="none" xmlns="http://www.w3.org/2000/svg">
<path d="M28.3307 6.66699C33.9974 6.66699 38.3307 12.7337 38.3307 20.0003V28.3337C38.3307 28.7757 38.1551 29.1996 37.8426 29.5122C37.53 29.8247 37.1061 30.0003 36.6641 30.0003H34.7124C34.3674 30.9751 33.7287 31.8189 32.8844 32.4157C32.04 33.0126 31.0314 33.333 29.9974 33.333C28.9634 33.333 27.9548 33.0126 27.1104 32.4157C26.2661 31.8189 25.6274 30.9751 25.2824 30.0003H14.7124C14.3674 30.9751 13.7287 31.8189 12.8844 32.4157C12.04 33.0126 11.0314 33.333 9.9974 33.333C8.96339 33.333 7.95481 33.0126 7.11044 32.4157C6.26607 31.8189 5.62742 30.9751 5.2824 30.0003H3.33073C2.8887 30.0003 2.46478 29.8247 2.15222 29.5122C1.83966 29.1996 1.66406 28.7757 1.66406 28.3337V10.0003C1.66406 9.11627 2.01525 8.26842 2.64037 7.6433C3.26549 7.01818 4.11334 6.66699 4.9974 6.66699H28.3307ZM9.9974 26.667C9.55537 26.667 9.13145 26.8426 8.81889 27.1551C8.50632 27.4677 8.33073 27.8916 8.33073 28.3337C8.33073 28.7757 8.50632 29.1996 8.81889 29.5122C9.13145 29.8247 9.55537 30.0003 9.9974 30.0003C10.4394 30.0003 10.8633 29.8247 11.1759 29.5122C11.4885 29.1996 11.6641 28.7757 11.6641 28.3337C11.6641 27.8916 11.4885 27.4677 11.1759 27.1551C10.8633 26.8426 10.4394 26.667 9.9974 26.667ZM29.9974 26.667C29.5554 26.667 29.1314 26.8426 28.8189 27.1551C28.5063 27.4677 28.3307 27.8916 28.3307 28.3337C28.3307 28.7757 28.5063 29.1996 28.8189 29.5122C29.1314 29.8247 29.5554 30.0003 29.9974 30.0003C30.4394 30.0003 30.8633 29.8247 31.1759 29.5122C31.4885 29.1996 31.6641 28.7757 31.6641 28.3337C31.6641 27.8916 31.4885 27.4677 31.1759 27.1551C30.8633 26.8426 30.4394 26.667 29.9974 26.667ZM28.7307 10.0187L30.5107 18.3337H34.9041C34.3824 13.7403 31.7457 10.3003 28.7307 10.0187ZM9.9974 10.0003H4.9974V15.0003H9.9974V10.0003ZM18.3307 10.0003H13.3307V15.0003H18.3307V10.0003ZM25.3157 10.0003H21.6641V15.0003H26.3874L25.3157 10.0003Z" fill="#324950"/>
</svg>
