<svg width="23" height="20" viewBox="0 0 23 20" fill="none" xmlns="http://www.w3.org/2000/svg">
<rect width="22.8571" height="20" rx="3.57143" fill="#FFD6F7"/>
<path d="M10.3333 4.15674L6.14841 6.12612C5.44742 6.45599 5 7.16103 5 7.93575V11.9212L9.80743 9.51747C9.97697 9.4327 10.1533 9.36707 10.3333 9.32059V4.15674Z" fill="#BC22CA"/>
<path d="M11.6667 9.32059C11.8467 9.36707 12.023 9.4327 12.1926 9.51747L17 11.9212V7.93575C17 7.16103 16.5526 6.45599 15.8516 6.12612L11.6667 4.15674V9.32059Z" fill="#BC22CA"/>
<path d="M10.4037 10.71L5.8402 12.9918L10.6489 15.2547C10.7587 15.3064 10.8786 15.3332 11 15.3332C11.1214 15.3332 11.2413 15.3064 11.3511 15.2547L16.1598 12.9918L11.5963 10.71C11.2209 10.5224 10.7791 10.5224 10.4037 10.71Z" fill="#BC22CA"/>
</svg>
