<svg width="29" height="30" viewBox="0 0 29 30" fill="none" xmlns="http://www.w3.org/2000/svg">
<path fill-rule="evenodd" clip-rule="evenodd" d="M27.4116 9.82357L18.2424 12.2804L16.8984 10.9365L19.3553 1.76731C19.5996 0.855445 20.5369 0.314274 21.4488 0.558707C22.3606 0.803026 22.9018 1.7403 22.6575 2.65217L21.2411 7.93774L26.5267 6.52139C27.4386 6.27707 28.3759 6.81824 28.6203 7.73011C28.8646 8.64198 28.3234 9.57926 27.4116 9.82357Z" fill="#4CEBC0"/>
<path fill-rule="evenodd" clip-rule="evenodd" d="M27.0802 2.10018C27.7477 2.76773 27.7477 3.85007 27.0802 4.51762L19.4253 12.1725L17.0078 9.75521L24.6628 2.10018C25.3303 1.43275 26.4126 1.43275 27.0802 2.10018Z" fill="#00E2A5"/>
<path fill-rule="evenodd" clip-rule="evenodd" d="M22.7049 17.9267C22.3825 18.0878 3.06543 29.0134 3.06543 29.0134C2.03106 29.5965 1.19896 29.7255 0.486858 29.0134C-0.225132 28.3014 -0.0962491 27.4693 0.486858 26.435C0.486858 26.435 11.4125 7.11781 11.5737 6.79555C11.7349 6.47317 12.8337 4.939 14.3464 6.45152L23.0488 15.154C24.5614 16.6665 23.0271 17.7655 22.7049 17.9267Z" fill="#FC9502"/>
<path fill-rule="evenodd" clip-rule="evenodd" d="M15.1518 17.893C15.3297 17.715 15.6184 17.715 15.7964 17.893L18.3042 20.4009C18.0369 20.5518 17.7618 20.707 17.4801 20.8661L15.1518 18.5377C14.9738 18.3597 14.9738 18.071 15.1518 17.893ZM6.28812 20.6327L9.02782 23.3724C9.20582 23.5504 9.20582 23.8389 9.02782 24.0171C8.84982 24.1951 8.56118 24.1951 8.38318 24.0171L5.64348 21.2774C5.46548 21.0994 5.46548 20.8107 5.64348 20.6327C5.82147 20.4547 6.11012 20.4547 6.28812 20.6327ZM3.54842 24.6616C3.37042 24.8396 3.08189 24.8396 2.90389 24.6616L2 23.7578C2.14734 23.4973 2.30301 23.222 2.46573 22.9343L3.54842 24.0171C3.72653 24.1951 3.72653 24.4836 3.54842 24.6616ZM8.70544 18.2154L6.42293 15.9329C6.5787 15.6572 6.73402 15.3824 6.88843 15.109L9.35008 17.5708C9.52808 17.7487 9.52808 18.0374 9.35008 18.2154C9.17209 18.3934 8.88355 18.3934 8.70544 18.2154ZM16.1992 12.8167C16.0212 12.9947 15.7326 12.9947 15.5546 12.8167L12.815 10.077C12.637 9.89897 12.637 9.61032 12.815 9.43233C12.993 9.25433 13.2816 9.25433 13.4596 9.43233L16.1992 12.172C16.3772 12.35 16.3772 12.6386 16.1992 12.8167Z" fill="#FF5134"/>
</svg>
