<svg width="29" height="29" viewBox="0 0 29 29" fill="none" xmlns="http://www.w3.org/2000/svg">
<g clip-path="url(#clip0_6689_8603)">
<path d="M27.319 14.2559H25.0919V8.54501C25.5365 8.39254 25.9486 8.14887 26.3016 7.82364C26.9053 7.26743 27.287 6.5204 27.3838 5.7101C27.3963 5.64683 27.4029 5.58147 27.4029 5.51452V1.00237C27.4028 0.448763 26.954 0 26.4005 0H2.13342C1.57982 0 1.13106 0.448763 1.13106 1.00237V5.5148C1.13106 5.58119 1.13751 5.64593 1.14997 5.70868C1.24655 6.51961 1.6283 7.2672 2.23243 7.82375C2.70628 8.26028 3.28634 8.55028 3.90916 8.66923V14.2559H1.68205C1.12851 14.2559 0.679688 14.7047 0.679688 15.2583C0.679688 15.7835 1.08387 16.2136 1.59817 16.2564V26.9996C1.59817 27.5532 2.04693 28.002 2.60054 28.002H3.90939C3.91171 28.5536 4.3594 29.0001 4.91153 29.0001C5.46366 29.0001 5.91135 28.5536 5.91367 28.002H23.0874C23.0897 28.5536 23.5374 29.0001 24.0896 29.0001C24.6417 29.0001 25.0894 28.5536 25.0917 28.002H26.4007C26.9542 28.002 27.403 27.5532 27.403 26.9996V16.2563C27.9171 16.2136 28.3213 15.7835 28.3213 15.2582C28.3213 14.7047 27.8725 14.2559 27.319 14.2559ZM25.3982 5.42435C25.398 5.42537 25.3979 5.42627 25.3979 5.42724C25.3341 6.15535 24.7106 6.72566 23.9785 6.72566C23.2465 6.72566 22.623 6.15535 22.5592 5.42724C22.5581 5.41489 22.5557 5.40294 22.5543 5.39076H25.3982V5.42435ZM9.41122 8.7304C10.2746 8.7304 11.0996 8.4084 11.7343 7.82375C11.77 7.79079 11.805 7.75726 11.8391 7.72305C11.8733 7.75726 11.9082 7.7909 11.944 7.82375C12.5787 8.40845 13.4036 8.7304 14.267 8.7304C15.1304 8.7304 15.9554 8.4084 16.5901 7.82375C16.6258 7.79079 16.6608 7.75726 16.6949 7.72299C16.7291 7.75726 16.7641 7.79079 16.7997 7.82375C17.4345 8.40845 18.2594 8.7304 19.1228 8.7304C19.9862 8.7304 20.8111 8.4084 21.4459 7.82375C21.4816 7.79079 21.5165 7.75726 21.5507 7.72299C21.5849 7.75726 21.6199 7.79079 21.6556 7.82375C22.0666 8.20245 22.5578 8.47014 23.0872 8.61236V14.256H5.91384V8.44991C6.26484 8.2984 6.59131 8.08827 6.87843 7.8237C6.91417 7.79073 6.94911 7.7572 6.98327 7.72293C7.01748 7.7572 7.05243 7.79073 7.08811 7.8237C7.72282 8.40845 8.54785 8.7304 9.41122 8.7304ZM7.98694 5.39076H10.8356C10.8341 5.403 10.8318 5.41489 10.8307 5.42724C10.7669 6.15535 10.1434 6.72566 9.41128 6.72566C8.67925 6.72566 8.0557 6.15535 7.99186 5.42724C7.99079 5.41489 7.98841 5.40294 7.98694 5.39076ZM12.8427 5.39076H15.6913C15.6898 5.403 15.6874 5.41489 15.6864 5.42724C15.6225 6.15535 14.9991 6.72566 14.267 6.72566C13.5348 6.72566 12.9114 6.15535 12.8477 5.42724C12.8466 5.41489 12.8443 5.40294 12.8427 5.39076ZM17.6985 5.39076H20.5471C20.5456 5.403 20.5432 5.41489 20.5422 5.42724C20.4783 6.15535 19.8548 6.72566 19.1227 6.72566C18.3907 6.72566 17.7672 6.15535 17.7034 5.42724C17.7024 5.41489 17.7 5.40294 17.6985 5.39076ZM3.13573 2.00468H25.3982V3.38603H3.13573V2.00468ZM3.13602 5.42724C3.13596 5.42627 3.1359 5.42537 3.13573 5.42441V5.3907H5.97982C5.97829 5.40294 5.97597 5.41483 5.9749 5.42718C5.91106 6.15529 5.28762 6.72561 4.55548 6.72561C3.82335 6.72561 3.19985 6.15535 3.13602 5.42724ZM25.3981 25.9972H3.60285V16.2606H25.3981V25.9972Z" fill="#0F973D"/>
<path d="M21.3324 20.2915C20.9291 19.1451 19.836 18.3208 18.5535 18.3208H10.4416C9.15913 18.3208 8.06603 19.1451 7.66275 20.2915C7.22033 20.3957 6.89062 20.792 6.89062 21.2662C6.89062 21.7405 7.22033 22.1368 7.66275 22.2409C8.06603 23.3874 9.15913 24.2116 10.4416 24.2116H18.5535C19.836 24.2116 20.9291 23.3874 21.3324 22.2409C21.7748 22.1368 22.1045 21.7405 22.1045 21.2662C22.1045 20.792 21.7748 20.3956 21.3324 20.2915ZM18.5535 22.207H10.4416C9.92299 22.207 9.50096 21.7849 9.50096 21.2662C9.50096 20.7474 9.92293 20.3255 10.4417 20.3255H18.5535C19.0722 20.3255 19.4943 20.7474 19.4943 21.2662C19.4943 21.785 19.0722 22.207 18.5535 22.207Z" fill="#0F973D"/>
</g>
<defs>
<clipPath id="clip0_6689_8603">
<rect width="29" height="29" fill="white"/>
</clipPath>
</defs>
</svg>
