<svg width="19" height="19" viewBox="0 0 19 19" fill="none" xmlns="http://www.w3.org/2000/svg">
<path fill-rule="evenodd" clip-rule="evenodd" d="M0.25 1.66634C0.25 1.2061 0.623096 0.833008 1.08333 0.833008C2.51195 0.833008 3.72412 1.86754 3.9713 3.27257L4.42175 5.83301H12.2512C13.1638 5.833 13.9033 5.83299 14.4935 5.88468C15.098 5.93761 15.6428 6.05065 16.1246 6.33955C16.8086 6.74966 17.3313 7.37918 17.5969 8.12693C17.7858 8.65884 17.7767 9.21068 17.6937 9.79739C17.6131 10.3676 17.4465 11.0659 17.2425 11.9206L17.2256 11.9915C17.0915 12.5538 16.9798 13.0218 16.8574 13.4015C16.7291 13.7994 16.5727 14.1556 16.3221 14.4787C15.9591 14.9466 15.4799 15.3133 14.9327 15.5466C14.5575 15.7065 14.1708 15.7724 13.7459 15.8033C13.338 15.833 12.8429 15.833 12.2424 15.833H11.832C10.4818 15.833 9.40987 15.833 8.54511 15.7517C7.65747 15.6683 6.91088 15.494 6.23364 15.0982C5.76614 14.825 5.3443 14.4827 4.98376 14.0827C4.45884 13.5004 4.14977 12.8114 3.9113 11.974C3.68006 11.162 3.49716 10.1398 3.26813 8.85974L2.90192 6.81312L2.90149 6.81073L2.32984 3.56135C2.22066 2.94074 1.69035 2.49967 1.08333 2.49967C0.623096 2.49967 0.25 2.12658 0.25 1.66634ZM14.3481 7.54499C13.8393 7.50043 13.173 7.49967 12.2122 7.49967H4.7179L4.90092 8.52249C5.13956 9.85618 5.30866 10.7956 5.51424 11.5175C5.71522 12.2233 5.93152 12.6449 6.22168 12.9668C6.46605 13.2378 6.75362 13.4717 7.0746 13.6593C7.45978 13.8844 7.93732 14.0206 8.70108 14.0924C9.47878 14.1655 10.4724 14.1663 11.874 14.1663H12.2122C12.8504 14.1663 13.2847 14.1658 13.6249 14.1411C13.955 14.1171 14.139 14.0731 14.2791 14.0134C14.57 13.8894 14.8193 13.6968 15.0052 13.4571C15.0921 13.3451 15.1746 13.1895 15.2711 12.8901C15.3713 12.5795 15.4684 12.1749 15.6118 11.574C15.8276 10.6693 15.9751 10.0474 16.0435 9.56392C16.1108 9.08806 16.0843 8.84795 16.0264 8.68476C15.8934 8.31044 15.628 7.98507 15.2676 7.76897C15.1024 7.66994 14.851 7.58903 14.3481 7.54499Z" fill="#101928"/>
<path d="M6.70833 18.333C7.28363 18.333 7.75 17.8666 7.75 17.2913C7.75 16.716 7.28363 16.2497 6.70833 16.2497C6.13304 16.2497 5.66667 16.716 5.66667 17.2913C5.66667 17.8666 6.13304 18.333 6.70833 18.333Z" fill="#101928"/>
<path d="M15.25 17.2913C15.25 17.8666 14.7836 18.333 14.2083 18.333C13.633 18.333 13.1667 17.8666 13.1667 17.2913C13.1667 16.716 13.633 16.2497 14.2083 16.2497C14.7836 16.2497 15.25 16.716 15.25 17.2913Z" fill="#101928"/>
<path d="M16.5 1.66634C16.5 1.2061 16.1269 0.833008 15.6667 0.833008C15.2064 0.833008 14.8333 1.2061 14.8333 1.66634V2.49967H14C13.5398 2.49967 13.1667 2.87277 13.1667 3.33301C13.1667 3.79325 13.5398 4.16634 14 4.16634H14.8333V4.99967C14.8333 5.45991 15.2064 5.83301 15.6667 5.83301C16.1269 5.83301 16.5 5.45991 16.5 4.99967V4.16634H17.3333C17.7936 4.16634 18.1667 3.79325 18.1667 3.33301C18.1667 2.87277 17.7936 2.49967 17.3333 2.49967H16.5V1.66634Z" fill="#101928"/>
</svg>
